<svg id="confused" xmlns="http://www.w3.org/2000/svg" width="23.985" height="23.985" viewBox="0 0 23.985 23.985">
  <path id="Path_5635" data-name="Path 5635" d="M23.985,11.993A11.993,11.993,0,1,1,11.993,0,11.993,11.993,0,0,1,23.985,11.993" transform="translate(0 0)" fill="#fbd971"/>
  <g id="Group_6980" data-name="Group 6980" transform="translate(4.549 5.786)">
    <path id="Path_5636" data-name="Path 5636" d="M313.927,125.988a2.481,2.481,0,1,1-2.481-2.481,2.481,2.481,0,0,1,2.481,2.481" transform="translate(-299.04 -123.507)" fill="#fff"/>
    <path id="Path_5637" data-name="Path 5637" d="M102.065,125.988a2.481,2.481,0,1,1-2.481-2.481,2.481,2.481,0,0,1,2.481,2.481" transform="translate(-97.103 -123.507)" fill="#fff"/>
  </g>
  <path id="Path_5638" data-name="Path 5638" d="M171.987,294.718a.412.412,0,0,1-.34-.178,5.383,5.383,0,0,0-7.479-1.365.414.414,0,0,1-.47-.681,6.21,6.21,0,0,1,8.629,1.576.413.413,0,0,1-.339.649" transform="translate(-155.859 -277.745)" fill="#f29c1f"/>
  <g id="Group_6981" data-name="Group 6981" transform="translate(5.79 8.267)">
    <path id="Path_5639" data-name="Path 5639" d="M126.067,177.714a1.241,1.241,0,1,1-1.241-1.241,1.241,1.241,0,0,1,1.241,1.241" transform="translate(-123.586 -176.473)"/>
    <path id="Path_5640" data-name="Path 5640" d="M337.929,177.714a1.241,1.241,0,1,1-1.241-1.241,1.241,1.241,0,0,1,1.241,1.241" transform="translate(-325.523 -176.473)"/>
  </g>
  <g id="Group_6982" data-name="Group 6982" transform="translate(4.862 3.722)">
    <path id="Path_5641" data-name="Path 5641" d="M107.715,81a.412.412,0,0,1-.292-.121,2.068,2.068,0,0,0-2.924,0,.413.413,0,0,1-.585-.585,2.894,2.894,0,0,1,4.093,0,.414.414,0,0,1-.292.706" transform="translate(-103.793 -79.451)" fill="#f29c1f"/>
    <path id="Path_5642" data-name="Path 5642" d="M319.577,81a.412.412,0,0,1-.292-.121,2.068,2.068,0,0,0-2.924,0,.413.413,0,0,1-.585-.585,2.894,2.894,0,0,1,4.093,0,.414.414,0,0,1-.292.706" transform="translate(-305.73 -79.451)" fill="#f29c1f"/>
  </g>
</svg>
