<svg id="idea_1_" data-name="idea (1)" xmlns="http://www.w3.org/2000/svg" width="22.542" height="23.784" viewBox="0 0 22.542 23.784">
  <path id="Path_5619" data-name="Path 5619" d="M127.275,107h5.54a.251.251,0,0,0,.254-.235,8.978,8.978,0,0,1,1.878-5.132,5.772,5.772,0,0,0,1.233-3.565,6.14,6.14,0,0,0-12.273.019,5.769,5.769,0,0,0,1.192,3.493,9.221,9.221,0,0,1,1.92,5.184A.251.251,0,0,0,127.275,107Z" transform="translate(-118.773 -87.861)" fill="#ffde3e"/>
  <g id="Group_6976" data-name="Group 6976" transform="translate(8.997 4.28)">
    <path id="Path_5620" data-name="Path 5620" d="M243.869,92.141c-.184,0-.365.011-.545.028a6.011,6.011,0,0,1,5.54,5.9,5.771,5.771,0,0,1-1.233,3.565,8.977,8.977,0,0,0-1.878,5.132.251.251,0,0,1-.254.235h1.185a.251.251,0,0,0,.254-.235,8.978,8.978,0,0,1,1.878-5.132,5.772,5.772,0,0,0,1.233-3.565A6.037,6.037,0,0,0,243.869,92.141Z" transform="translate(-241.639 -92.141)" fill="#fcd400"/>
    <path id="Path_5621" data-name="Path 5621" d="M211.426,267.827a.414.414,0,0,0-.415-.049l-.755.33-.778-.331a.418.418,0,0,0-.352.013l-.643.331-.874-.348a.42.42,0,0,0-.408.058.416.416,0,0,0-.156.381v.005l.766,5.182h.7l-.709-4.8.566.225a.348.348,0,0,0,.288-.014l.666-.343.794.338a.348.348,0,0,0,.276,0l.425-.186-.706,4.779h.7l.766-5.186A.415.415,0,0,0,211.426,267.827Z" transform="translate(-207.041 -259.587)" fill="#fcd400"/>
  </g>
  <g id="Group_6977" data-name="Group 6977" transform="translate(0 0)">
    <path id="Path_5622" data-name="Path 5622" d="M439.2,235.829h-2.181a.348.348,0,1,1,0-.7H439.2a.348.348,0,1,1,0,.7Z" transform="translate(-417.01 -224.21)" fill="#ffb427"/>
    <path id="Path_5623" data-name="Path 5623" d="M15.9,235.829H13.716a.348.348,0,1,1,0-.7H15.9a.348.348,0,1,1,0,.7Z" transform="translate(-13.368 -224.21)" fill="#ffb427"/>
    <path id="Path_5624" data-name="Path 5624" d="M383.449,370.43a.347.347,0,0,1-.246-.1l-1.543-1.542a.348.348,0,0,1,.493-.493l1.542,1.543a.348.348,0,0,1-.246.595Z" transform="translate(-364.455 -351.088)" fill="#ffb427"/>
    <path id="Path_5625" data-name="Path 5625" d="M84.127,71.108a.347.347,0,0,1-.246-.1l-1.542-1.542a.348.348,0,0,1,.493-.493l1.542,1.542a.348.348,0,0,1-.246.595Z" transform="translate(-79.037 -65.67)" fill="#ffb427"/>
    <path id="Path_5626" data-name="Path 5626" d="M381.907,71.107a.348.348,0,0,1-.246-.595L383.2,68.97a.348.348,0,0,1,.493.493l-1.542,1.542A.347.347,0,0,1,381.907,71.107Z" transform="translate(-364.455 -65.669)" fill="#ffb427"/>
    <path id="Path_5627" data-name="Path 5627" d="M82.585,370.43a.348.348,0,0,1-.246-.595l1.542-1.543a.348.348,0,1,1,.493.493l-1.542,1.543A.347.347,0,0,1,82.585,370.43Z" transform="translate(-79.037 -351.088)" fill="#ffb427"/>
    <path id="Path_5628" data-name="Path 5628" d="M248.848,2.878a.348.348,0,0,1-.348-.348V.348a.348.348,0,0,1,.7,0V2.53A.348.348,0,0,1,248.848,2.878Z" transform="translate(-237.578)" fill="#ffb427"/>
  </g>
  <path id="Path_5629" data-name="Path 5629" d="M222.575,385.624h-3.127a.141.141,0,0,0-.141.141v1.178h3.41v-1.178A.141.141,0,0,0,222.575,385.624Z" transform="translate(-209.741 -367.711)" fill="#d96b37"/>
  <path id="Path_5630" data-name="Path 5630" d="M268.238,385.624h-1.044v1.32h1.185v-1.178A.141.141,0,0,0,268.238,385.624Z" transform="translate(-255.403 -367.711)" fill="#b14418"/>
  <path id="Path_5631" data-name="Path 5631" d="M208.962,416.363h0a4.388,4.388,0,0,1-3.264,0h0a1.177,1.177,0,0,1-.739-1.092v-3.236H209.7v3.236A1.177,1.177,0,0,1,208.962,416.363Z" transform="translate(-196.059 -392.894)" fill="#ffb427"/>
  <path id="Path_5632" data-name="Path 5632" d="M245.029,412.034v3.236a1.177,1.177,0,0,1-.739,1.093h0a4.385,4.385,0,0,1-1.04.274,4.388,4.388,0,0,0,2.225-.274h0a1.177,1.177,0,0,0,.739-1.093v-3.236Z" transform="translate(-232.571 -392.894)" fill="#ff9d00"/>
  <g id="Group_6978" data-name="Group 6978" transform="translate(8.9 20.323)">
    <rect id="Rectangle_5960" data-name="Rectangle 5960" width="4.743" height="0.605" transform="translate(0)" fill="#ff8b00"/>
    <path id="Path_5633" data-name="Path 5633" d="M209.63,470.046h-4.6a.3.3,0,0,0-.072.009v.533c0,.018,0,.036,0,.055a.3.3,0,0,0,.07.009h4.6a.3.3,0,0,0,.07-.009c0-.018,0-.036,0-.055v-.533A.3.3,0,0,0,209.63,470.046Z" transform="translate(-204.959 -468.534)" fill="#ff8b00"/>
  </g>
  <g id="Group_6979" data-name="Group 6979" transform="translate(12.455 20.323)">
    <rect id="Rectangle_5961" data-name="Rectangle 5961" width="1.185" height="0.605" transform="translate(0.002)" fill="#ff6900"/>
    <path id="Path_5634" data-name="Path 5634" d="M281.493,470.046v.542c0,.021,0,.042,0,.063h1.116a.3.3,0,0,0,.07-.009c0-.018,0-.036,0-.055v-.533a.3.3,0,0,0-.072-.009Z" transform="translate(-281.491 -468.534)" fill="#ff6900"/>
  </g>
</svg>
