<svg id="Group_6989" data-name="Group 6989" xmlns="http://www.w3.org/2000/svg" width="38.44" height="49.987" viewBox="0 0 38.44 49.987">
  <g id="Group_6975" data-name="Group 6975" transform="translate(0 0)">
    <g id="star_2_" data-name="star (2)" transform="translate(11.939 17.159)">
      <path id="Path_5617" data-name="Path 5617" d="M15.813,17.456l-5.246-.487L8.483,12.131a.42.42,0,0,0-.772,0L5.627,16.969l-5.246.486a.42.42,0,0,0-.239.734L4.1,21.667,2.943,26.806a.42.42,0,0,0,.625.454l4.53-2.69,4.53,2.69a.42.42,0,0,0,.625-.454l-1.158-5.139,3.958-3.477A.42.42,0,0,0,15.813,17.456Z" transform="translate(0 -11.877)" fill="#ffdc64"/>
      <path id="Path_5618" data-name="Path 5618" d="M8.483,12.131a.42.42,0,0,0-.772,0L5.627,16.969l-5.246.486a.42.42,0,0,0-.239.734L4.1,21.667,2.943,26.806a.42.42,0,0,0,.625.454l1.011-.6A18.54,18.54,0,0,1,9.514,14.523Z" transform="translate(0 -11.877)" fill="#ffc850"/>
    </g>
    <g id="star_2_2" data-name="star (2)" transform="translate(0 1.716)">
      <path id="Path_5617-2" data-name="Path 5617" d="M15.813,17.456l-5.246-.487L8.483,12.131a.42.42,0,0,0-.772,0L5.627,16.969l-5.246.486a.42.42,0,0,0-.239.734L4.1,21.667,2.943,26.806a.42.42,0,0,0,.625.454l4.53-2.69,4.53,2.69a.42.42,0,0,0,.625-.454l-1.158-5.139,3.958-3.477A.42.42,0,0,0,15.813,17.456Z" transform="translate(0 -11.877)" fill="#ffdc64"/>
      <path id="Path_5618-2" data-name="Path 5618" d="M8.483,12.131a.42.42,0,0,0-.772,0L5.627,16.969l-5.246.486a.42.42,0,0,0-.239.734L4.1,21.667,2.943,26.806a.42.42,0,0,0,.625.454l1.011-.6A18.54,18.54,0,0,1,9.514,14.523Z" transform="translate(0 -11.877)" fill="#ffc850"/>
    </g>
    <g id="star_2_3" data-name="star (2)" transform="translate(26.32 9.438)">
      <path id="Path_5617-3" data-name="Path 5617" d="M11.833,16.052l-3.926-.364L6.348,12.067a.315.315,0,0,0-.578,0L4.211,15.688l-3.926.364a.315.315,0,0,0-.179.55l2.962,2.6L2.2,23.05a.315.315,0,0,0,.467.34l3.39-2.013,3.39,2.013a.315.315,0,0,0,.468-.34L9.05,19.2l2.962-2.6A.315.315,0,0,0,11.833,16.052Z" transform="translate(0 -11.877)" fill="#ffdc64"/>
      <path id="Path_5618-3" data-name="Path 5618" d="M6.348,12.067a.315.315,0,0,0-.578,0L4.211,15.688l-3.926.364a.315.315,0,0,0-.179.55l2.962,2.6L2.2,23.05a.315.315,0,0,0,.467.34l.757-.449A13.874,13.874,0,0,1,7.12,13.857Z" transform="translate(0 -11.877)" fill="#ffc850"/>
    </g>
    <g id="star_2_4" data-name="star (2)" transform="translate(1.483 26.658)">
      <path id="Path_5617-4" data-name="Path 5617" d="M10.21,15.479l-3.387-.314L5.477,12.041a.271.271,0,0,0-.5,0L3.633,15.165l-3.387.314a.271.271,0,0,0-.154.474L2.648,18.2,1.9,21.516a.271.271,0,0,0,.4.293l2.925-1.737,2.925,1.737a.271.271,0,0,0,.4-.293L7.808,18.2l2.555-2.245A.271.271,0,0,0,10.21,15.479Z" transform="translate(0 -11.877)" fill="#ffdc64"/>
      <path id="Path_5618-4" data-name="Path 5618" d="M5.477,12.041a.271.271,0,0,0-.5,0L3.633,15.165l-3.387.314a.271.271,0,0,0-.154.474L2.648,18.2,1.9,21.516a.271.271,0,0,0,.4.293l.653-.388a11.971,11.971,0,0,1,3.186-7.836Z" transform="translate(0 -11.877)" fill="#ffc850"/>
    </g>
    <g id="star_2_5" data-name="star (2)" transform="translate(26.464 31.644)">
      <path id="Path_5617-5" data-name="Path 5617" d="M8.33,14.816,5.567,14.56l-1.1-2.549a.221.221,0,0,0-.407,0l-1.1,2.549L.2,14.816a.221.221,0,0,0-.126.387L2.16,17.034l-.61,2.707a.221.221,0,0,0,.329.239l2.386-1.417,2.386,1.417a.221.221,0,0,0,.329-.239l-.61-2.707L8.456,15.2A.221.221,0,0,0,8.33,14.816Z" transform="translate(0 -11.877)" fill="#ffdc64"/>
      <path id="Path_5618-5" data-name="Path 5618" d="M4.469,12.011a.221.221,0,0,0-.407,0l-1.1,2.549L.2,14.816a.221.221,0,0,0-.126.387L2.16,17.034l-.61,2.707a.221.221,0,0,0,.329.239l.533-.316a9.767,9.767,0,0,1,2.6-6.394Z" transform="translate(0 -11.877)" fill="#ffc850"/>
    </g>
    <g id="star_2_6" data-name="star (2)" transform="translate(18.645)">
      <path id="Path_5617-6" data-name="Path 5617" d="M7.494,14.521,5.008,14.29,4.02,12a.2.2,0,0,0-.366,0L2.667,14.29l-2.486.231a.2.2,0,0,0-.113.348l1.876,1.648-.549,2.436a.2.2,0,0,0,.3.215l2.147-1.275,2.147,1.275a.2.2,0,0,0,.3-.215l-.549-2.436,1.876-1.648A.2.2,0,0,0,7.494,14.521Z" transform="translate(0 -11.877)" fill="#ffdc64"/>
      <path id="Path_5618-6" data-name="Path 5618" d="M4.02,12a.2.2,0,0,0-.366,0L2.667,14.29l-2.486.231a.2.2,0,0,0-.113.348l1.876,1.648-.549,2.436a.2.2,0,0,0,.3.215l.479-.285a8.786,8.786,0,0,1,2.339-5.752Z" transform="translate(0 -11.877)" fill="#ffc850"/>
    </g>
  </g>
  <g id="S_2_" transform="translate(8.383 43.044)">
    <path id="Path_5673" data-name="Path 5673" d="M50.831,4.781c0,.861-.574,2.193-2.848,2.161a2.558,2.558,0,0,1-2.872-2.556l1.672-.159a1.2,1.2,0,0,0,1.2,1.22h.053c.4,0,1.074-.138,1.074-.663a.365.365,0,0,0-.008-.073c-.065-.334-.594-.435-1.119-.561-.012,0-.02,0-.033-.008-1.09-.264-2.579-.622-2.579-2.172,0-.9.675-1.97,2.575-1.97h.037c2.278.016,2.608,1.4,2.656,2.019,0,.045,0,.089,0,.126,0,.1,0,.163.008.171l-1.692.073a.7.7,0,0,1-.037-.11c-.077-.321-.053-.793-.94-.805a.2.2,0,0,0-.049,0c-.313,0-.9.089-.9.415,0,.268.415.4.952.537.089.02.183.041.281.065C49.639,2.808,50.831,3.2,50.831,4.781Z" transform="translate(-45.111 0)" fill="#ffbe40"/>
    <g id="Group_6984" data-name="Group 6984" transform="translate(2.872 0)">
      <path id="Path_5674" data-name="Path 5674" d="M259.759,180.959c0,.861-.574,2.193-2.848,2.161v-1.495h.053c.4,0,1.074-.138,1.074-.663a.355.355,0,0,0-.008-.073c-.065-.334-.594-.435-1.119-.561V178.6c.09.02.183.041.281.065C258.567,178.986,259.759,179.381,259.759,180.959Z" transform="translate(-256.911 -176.178)" fill="#ff9f40"/>
      <path id="Path_5675" data-name="Path 5675" d="M259.58,2.316l-1.692.073a.687.687,0,0,1-.037-.11c-.077-.321-.053-.793-.94-.805V0c2.278.016,2.608,1.4,2.656,2.019,0,.045,0,.089,0,.126C259.576,2.247,259.576,2.308,259.58,2.316Z" transform="translate(-256.911 0)" fill="#ff9f40"/>
    </g>
  </g>
  <g id="S_2_2" data-name="S_2_" transform="translate(32.721 43.044)">
    <path id="Path_5673-2" data-name="Path 5673" d="M50.831,4.781c0,.861-.574,2.193-2.848,2.161a2.558,2.558,0,0,1-2.872-2.556l1.672-.159a1.2,1.2,0,0,0,1.2,1.22h.053c.4,0,1.074-.138,1.074-.663a.365.365,0,0,0-.008-.073c-.065-.334-.594-.435-1.119-.561-.012,0-.02,0-.033-.008-1.09-.264-2.579-.622-2.579-2.172,0-.9.675-1.97,2.575-1.97h.037c2.278.016,2.608,1.4,2.656,2.019,0,.045,0,.089,0,.126,0,.1,0,.163.008.171l-1.692.073a.7.7,0,0,1-.037-.11c-.077-.321-.053-.793-.94-.805a.2.2,0,0,0-.049,0c-.313,0-.9.089-.9.415,0,.268.415.4.952.537.089.02.183.041.281.065C49.639,2.808,50.831,3.2,50.831,4.781Z" transform="translate(-45.111 0)" fill="#ffbe40"/>
    <g id="Group_6984-2" data-name="Group 6984" transform="translate(2.872 0)">
      <path id="Path_5674-2" data-name="Path 5674" d="M259.759,180.959c0,.861-.574,2.193-2.848,2.161v-1.495h.053c.4,0,1.074-.138,1.074-.663a.355.355,0,0,0-.008-.073c-.065-.334-.594-.435-1.119-.561V178.6c.09.02.183.041.281.065C258.567,178.986,259.759,179.381,259.759,180.959Z" transform="translate(-256.911 -176.178)" fill="#ff9f40"/>
      <path id="Path_5675-2" data-name="Path 5675" d="M259.58,2.316l-1.692.073a.687.687,0,0,1-.037-.11c-.077-.321-.053-.793-.94-.805V0c2.278.016,2.608,1.4,2.656,2.019,0,.045,0,.089,0,.126C259.576,2.247,259.576,2.308,259.58,2.316Z" transform="translate(-256.911 0)" fill="#ff9f40"/>
    </g>
  </g>
  <g id="T_2_" transform="translate(14.103 43.044)">
    <path id="Path_5676" data-name="Path 5676" d="M49.725,6.943V1.508H51.7V0H46V1.508h1.975V6.943Z" transform="translate(-46 0)" fill="#c68cff"/>
    <path id="Path_5677" data-name="Path 5677" d="M256,6.943h.878V1.508h1.97V0H256Z" transform="translate(-253.152 0)" fill="#aa80ff"/>
  </g>
  <g id="_x36__2_" transform="translate(0 40.528)">
    <path id="Path_5678" data-name="Path 5678" d="M79.53,7.528a.837.837,0,0,1-.205-.028c-.421-.11-.809-.557-.809-1.4,0-.706.3-1.142.809-1.2a.757.757,0,0,1,.116-.011c.61,0,.942.48.942,1.357C80.384,6.833,80.234,7.528,79.53,7.528Zm.488-4.385H80a2.589,2.589,0,0,0-.676.016,2.3,2.3,0,0,0-.9.314c.116-.844.355-1.4.9-1.5a.934.934,0,0,1,.183-.017c.3,0,.648.083.726.728l.039.27,2.256-.237-.05-.292A2.739,2.739,0,0,0,79.613,0a2.442,2.442,0,0,0-.288.017C77.18.143,76,1.863,76,4.809S77.175,9.4,79.325,9.453a3.341,3.341,0,0,0,.8-.055A3.049,3.049,0,0,0,82.65,6.238,2.976,2.976,0,0,0,80.018,3.143Z" transform="translate(-76 0)" fill="#a0e65c"/>
    <g id="Group_6985" data-name="Group 6985" transform="translate(3.325 0)">
      <path id="Path_5679" data-name="Path 5679" d="M259.2,2.718l-2.256.237-.039-.27c-.078-.645-.427-.728-.726-.728a.934.934,0,0,0-.183.017V.017A2.443,2.443,0,0,1,256.288,0a2.739,2.739,0,0,1,2.865,2.426Z" transform="translate(-256 0)" fill="#79cc52"/>
      <path id="Path_5680" data-name="Path 5680" d="M259.324,172.433a3.049,3.049,0,0,1-2.527,3.161,3.344,3.344,0,0,1-.8.055V173.7a.833.833,0,0,0,.2.028c.7,0,.854-.695.854-1.274,0-.877-.332-1.357-.942-1.357a.76.76,0,0,0-.116.011v-1.749a2.585,2.585,0,0,1,.676-.017h.017A2.976,2.976,0,0,1,259.324,172.433Z" transform="translate(-255.999 -166.196)" fill="#79cc52"/>
    </g>
  </g>
  <g id="A_2_" transform="translate(19.22 43.044)">
    <path id="Path_5669" data-name="Path 5669" d="M6.985,6.943C6.05,4.524,5.22,2.419,4.285,0H2.663C1.754,2.419.952,4.524.042,6.943h1.8l.519-1.478H4.592L5.14,6.943M2.9,3.961l.611-1.6.528,1.6Z" transform="translate(-0.042 0)" fill="#ff7f40"/>
    <path id="Path_5670" data-name="Path 5670" d="M259.228,6.943c-.935-2.419-1.764-4.524-2.7-6.943h-.776V2.357l.527,1.6h-.527v1.5h1.082l.549,1.478" transform="translate(-252.286 0)" fill="#f25a3c"/>
  </g>
  <g id="R_2_" transform="translate(26.741 43.044)">
    <path id="Path_5671" data-name="Path 5671" d="M38.7,2.694a3.663,3.663,0,0,1-.757.06c-.289,0-.583,0-.757,0V1.509c.173,0,.475,0,.757,0,.119,0,.544,0,.655.017a.534.534,0,0,1,.484.586A.545.545,0,0,1,38.7,2.694Zm1.065,1.557v0a3.221,3.221,0,0,0-.342-.313A1.871,1.871,0,0,0,40.8,2.03,1.911,1.911,0,0,0,39.657.187,4.643,4.643,0,0,0,38.112,0H35.5V6.943h1.684V4.2c.5,0,.473.08.651.273.027.03.063.074.106.131.284.376.953,1.435,1.306,1.984l.228.353H41.48A26.374,26.374,0,0,0,39.763,4.251Z" transform="translate(-35.5 0)" fill="#a0e65c"/>
    <path id="Path_5672" data-name="Path 5672" d="M219.039,6.943h-2.006l-.228-.353c-.353-.549-1.023-1.608-1.306-1.984V2.753a3.662,3.662,0,0,0,.757-.06.545.545,0,0,0,.382-.582.534.534,0,0,0-.484-.586c-.111-.015-.536-.016-.655-.017V0h.171a4.643,4.643,0,0,1,1.546.187,1.911,1.911,0,0,1,1.147,1.843,1.872,1.872,0,0,1-1.383,1.9,3.228,3.228,0,0,1,.342.313v0A26.376,26.376,0,0,1,219.039,6.943Z" transform="translate(-213.059 0)" fill="#79cc52"/>
  </g>
</svg>
