<svg id="puzzle" xmlns="http://www.w3.org/2000/svg" width="49.976" height="49.988" viewBox="0 0 49.976 49.988">
  <path id="Path_5663" data-name="Path 5663" d="M23.362,185.357H17.254v-2.89a4.76,4.76,0,0,0-9.519,0v2.89H1.626A1.626,1.626,0,0,0,0,186.983V204a6.344,6.344,0,0,0,6.344,6.344H23.361a1.627,1.627,0,0,0,1.627-1.627V186.983a1.626,1.626,0,0,0-1.626-1.626Zm0,0" transform="translate(0 -160.357)" fill="#4cb4a4"/>
  <path id="Path_5664" data-name="Path 5664" d="M23.361,428.759H6.344A6.344,6.344,0,0,1,0,422.414v2.4a6.344,6.344,0,0,0,6.344,6.344H23.361a1.626,1.626,0,0,0,1.627-1.627v-2.4a1.626,1.626,0,0,1-1.626,1.627Zm0,0" transform="translate(0 -381.173)" fill="#41998b"/>
  <path id="Path_5665" data-name="Path 5665" d="M208.6,256.059H186.866a1.626,1.626,0,0,0-1.627,1.626v6.108h-2.89a4.76,4.76,0,1,0,0,9.519h2.89v6.108a1.627,1.627,0,0,0,1.627,1.626h17.017a6.344,6.344,0,0,0,6.344-6.344V257.685A1.626,1.626,0,0,0,208.6,256.059Zm0,0" transform="translate(-160.252 -231.059)" fill="#ffe675"/>
  <path id="Path_5666" data-name="Path 5666" d="M279.3,256.059h-1.157V272.33a6.344,6.344,0,0,1-6.344,6.344H255.942v.746a1.627,1.627,0,0,0,1.627,1.627h17.017a6.344,6.344,0,0,0,6.344-6.344V257.685a1.626,1.626,0,0,0-1.626-1.626Zm0,0" transform="translate(-230.954 -231.059)" fill="#dec866"/>
  <path id="Path_5667" data-name="Path 5667" d="M203.754,0H186.736a1.626,1.626,0,0,0-1.627,1.627V7.734h-2.89a4.76,4.76,0,0,0,0,9.52h2.89v6.108a1.627,1.627,0,0,0,1.627,1.627h6.108v2.89a4.76,4.76,0,0,0,9.52,0v-2.89h6.108a1.626,1.626,0,0,0,1.627-1.626V6.344A6.344,6.344,0,0,0,203.754,0Zm0,0" transform="translate(-160.134 0)" fill="#ff6e88"/>
  <path id="Path_5668" data-name="Path 5668" d="M356.512,3.2a6.32,6.32,0,0,1,1.607,4.219V24.435a1.626,1.626,0,0,1-1.626,1.627h-3.487a2.621,2.621,0,0,0-2.621,2.62v.27a4.758,4.758,0,0,1-5.818,4.64,4.76,4.76,0,0,0,8.589-2.827v-2.89h6.108a1.626,1.626,0,0,0,1.627-1.626V9.231A6.346,6.346,0,0,0,356.512,3.2Zm0,0" transform="translate(-310.925 -2.887)" fill="#e36278"/>
</svg>
