<svg id="idea_1_" data-name="idea (1)" xmlns="http://www.w3.org/2000/svg" width="47.377" height="49.988" viewBox="0 0 47.377 49.988">
  <path id="Path_5619" data-name="Path 5619" d="M130.984,123.373h11.645a.527.527,0,0,0,.534-.493,18.869,18.869,0,0,1,3.947-10.786A12.131,12.131,0,0,0,149.7,104.6a12.9,12.9,0,0,0-25.794.039,12.125,12.125,0,0,0,2.506,7.342,19.38,19.38,0,0,1,4.035,10.9A.527.527,0,0,0,130.984,123.373Z" transform="translate(-113.116 -83.146)" fill="#ffde3e"/>
  <g id="Group_6976" data-name="Group 6976" transform="translate(18.909 8.996)">
    <path id="Path_5620" data-name="Path 5620" d="M244.469,92.141c-.386,0-.768.023-1.145.058a12.634,12.634,0,0,1,11.645,12.4,12.13,12.13,0,0,1-2.592,7.493,18.868,18.868,0,0,0-3.947,10.786.527.527,0,0,1-.534.493h2.491a.527.527,0,0,0,.534-.493,18.87,18.87,0,0,1,3.947-10.786,12.131,12.131,0,0,0,2.592-7.493A12.688,12.688,0,0,0,244.469,92.141Z" transform="translate(-239.782 -92.141)" fill="#fcd400"/>
    <path id="Path_5621" data-name="Path 5621" d="M216.256,267.919a.87.87,0,0,0-.873-.1l-1.586.693-1.635-.7a.879.879,0,0,0-.739.027l-1.352.7-1.836-.731a.883.883,0,0,0-.859.122.874.874,0,0,0-.328.8l0,.011,1.609,10.892h1.481l-1.49-10.084,1.189.473a.732.732,0,0,0,.606-.029l1.4-.721,1.669.711a.731.731,0,0,0,.58,0l.893-.39L213.5,279.631h1.48l1.61-10.9A.871.871,0,0,0,216.256,267.919Z" transform="translate(-207.041 -250.599)" fill="#fcd400"/>
  </g>
  <g id="Group_6977" data-name="Group 6977" transform="translate(0 0)">
    <path id="Path_5622" data-name="Path 5622" d="M441.991,236.6h-4.585a.732.732,0,1,1,0-1.464h4.585a.732.732,0,1,1,0,1.464Z" transform="translate(-395.346 -212.176)" fill="#ffb427"/>
    <path id="Path_5623" data-name="Path 5623" d="M18.685,236.6H14.1a.732.732,0,1,1,0-1.464h4.585a.732.732,0,1,1,0,1.464Z" transform="translate(-13.368 -212.176)" fill="#ffb427"/>
    <path id="Path_5624" data-name="Path 5624" d="M385.532,372.9a.73.73,0,0,1-.518-.214l-3.242-3.242a.732.732,0,1,1,1.036-1.036l3.242,3.242a.732.732,0,0,1-.518,1.25Z" transform="translate(-345.611 -332.244)" fill="#ffb427"/>
    <path id="Path_5625" data-name="Path 5625" d="M86.21,73.575a.73.73,0,0,1-.518-.215l-3.242-3.242a.732.732,0,1,1,1.036-1.035l3.242,3.242a.732.732,0,0,1-.518,1.25Z" transform="translate(-75.512 -62.145)" fill="#ffb427"/>
    <path id="Path_5626" data-name="Path 5626" d="M382.291,73.575a.732.732,0,0,1-.518-1.25l3.242-3.242a.732.732,0,0,1,1.036,1.036l-3.242,3.242A.73.73,0,0,1,382.291,73.575Z" transform="translate(-345.611 -62.144)" fill="#ffb427"/>
    <path id="Path_5627" data-name="Path 5627" d="M82.969,372.9a.732.732,0,0,1-.518-1.25l3.242-3.242a.732.732,0,1,1,1.036,1.035l-3.242,3.242A.73.73,0,0,1,82.969,372.9Z" transform="translate(-75.512 -332.244)" fill="#ffb427"/>
    <path id="Path_5628" data-name="Path 5628" d="M249.232,6.049a.732.732,0,0,1-.732-.732V.732a.732.732,0,0,1,1.465,0V5.317A.732.732,0,0,1,249.232,6.049Z" transform="translate(-225.544)" fill="#ffb427"/>
  </g>
  <path id="Path_5629" data-name="Path 5629" d="M226.176,385.624H219.6a.3.3,0,0,0-.3.3V388.4h7.166v-2.477A.3.3,0,0,0,226.176,385.624Z" transform="translate(-199.201 -347.975)" fill="#d96b37"/>
  <path id="Path_5630" data-name="Path 5630" d="M269.388,385.624h-2.194V388.4h2.491v-2.477A.3.3,0,0,0,269.388,385.624Z" transform="translate(-242.412 -347.975)" fill="#b14418"/>
  <path id="Path_5631" data-name="Path 5631" d="M213.373,421.132h0a9.222,9.222,0,0,1-6.861,0h0a2.474,2.474,0,0,1-1.554-2.3v-6.8h9.968v6.8A2.474,2.474,0,0,1,213.373,421.132Z" transform="translate(-186.254 -371.806)" fill="#ffb427"/>
  <path id="Path_5632" data-name="Path 5632" d="M246.988,412.034v6.8a2.473,2.473,0,0,1-1.554,2.3h0a9.214,9.214,0,0,1-2.185.576,9.223,9.223,0,0,0,4.676-.576h0a2.474,2.474,0,0,0,1.554-2.3v-6.8Z" transform="translate(-220.806 -371.806)" fill="#ff9d00"/>
  <g id="Group_6978" data-name="Group 6978" transform="translate(18.705 42.715)">
    <rect id="Rectangle_5960" data-name="Rectangle 5960" width="9.968" height="1.271" transform="translate(0)" fill="#ff8b00"/>
    <path id="Path_5633" data-name="Path 5633" d="M214.775,470.046H205.11a.634.634,0,0,0-.151.019v1.119c0,.039,0,.077,0,.115a.635.635,0,0,0,.147.018h9.665a.635.635,0,0,0,.147-.018c0-.038,0-.076,0-.115v-1.119A.633.633,0,0,0,214.775,470.046Z" transform="translate(-204.959 -466.869)" fill="#ff8b00"/>
  </g>
  <g id="Group_6979" data-name="Group 6979" transform="translate(26.177 42.715)">
    <rect id="Rectangle_5961" data-name="Rectangle 5961" width="2.491" height="1.271" transform="translate(0.005)" fill="#ff6900"/>
    <path id="Path_5634" data-name="Path 5634" d="M281.5,470.046v1.138c0,.044,0,.088,0,.133h2.345a.634.634,0,0,0,.147-.018c0-.038,0-.076,0-.115v-1.119a.635.635,0,0,0-.151-.019Z" transform="translate(-281.491 -466.869)" fill="#ff6900"/>
  </g>
</svg>
