<svg id="confused" xmlns="http://www.w3.org/2000/svg" width="49.987" height="49.987" viewBox="0 0 49.987 49.987">
  <path id="Path_5635" data-name="Path 5635" d="M49.987,24.993A24.993,24.993,0,1,1,24.993,0,24.994,24.994,0,0,1,49.987,24.993" transform="translate(0 0)" fill="#fbd971"/>
  <g id="Group_6980" data-name="Group 6980" transform="translate(9.48 12.058)">
    <path id="Path_5636" data-name="Path 5636" d="M319.307,128.678a5.171,5.171,0,1,1-5.171-5.171,5.171,5.171,0,0,1,5.171,5.171" transform="translate(-288.281 -123.507)" fill="#fff"/>
    <path id="Path_5637" data-name="Path 5637" d="M107.445,128.678a5.171,5.171,0,1,1-5.171-5.171,5.171,5.171,0,0,1,5.171,5.171" transform="translate(-97.103 -123.507)" fill="#fff"/>
  </g>
  <path id="Path_5638" data-name="Path 5638" d="M181.167,298.32a.858.858,0,0,1-.709-.371,11.217,11.217,0,0,0-15.587-2.846.862.862,0,0,1-.98-1.419,12.942,12.942,0,0,1,17.984,3.284.862.862,0,0,1-.708,1.352" transform="translate(-147.554 -262.947)" fill="#f29c1f"/>
  <g id="Group_6981" data-name="Group 6981" transform="translate(12.066 17.229)">
    <path id="Path_5639" data-name="Path 5639" d="M128.757,179.059a2.586,2.586,0,1,1-2.586-2.586,2.585,2.585,0,0,1,2.586,2.586" transform="translate(-123.586 -176.473)"/>
    <path id="Path_5640" data-name="Path 5640" d="M340.619,179.059a2.586,2.586,0,1,1-2.586-2.586,2.585,2.585,0,0,1,2.586,2.586" transform="translate(-314.764 -176.473)"/>
  </g>
  <g id="Group_6982" data-name="Group 6982" transform="translate(10.133 7.757)">
    <path id="Path_5641" data-name="Path 5641" d="M111.967,82.689a.86.86,0,0,1-.609-.252,4.309,4.309,0,0,0-6.093,0,.862.862,0,1,1-1.219-1.219,6.032,6.032,0,0,1,8.531,0,.862.862,0,0,1-.609,1.471" transform="translate(-103.793 -79.451)" fill="#f29c1f"/>
    <path id="Path_5642" data-name="Path 5642" d="M323.829,82.689a.859.859,0,0,1-.609-.252,4.309,4.309,0,0,0-6.093,0,.862.862,0,1,1-1.219-1.219,6.032,6.032,0,0,1,8.531,0,.862.862,0,0,1-.609,1.471" transform="translate(-294.971 -79.451)" fill="#f29c1f"/>
  </g>
</svg>
