<svg id="bubble-speech" xmlns="http://www.w3.org/2000/svg" width="49.988" height="49.988" viewBox="0 0 49.988 49.988">
  <path id="Path_5654" data-name="Path 5654" d="M7.727,26.391A6.657,6.657,0,0,0,16.7,35.734a9.987,9.987,0,0,0,18.217.062,10.826,10.826,0,1,0,4.813-20.771A12.493,12.493,0,0,0,15.682,8.442,9.993,9.993,0,1,0,7.727,26.391Zm0,0" transform="translate(0 0)" fill="#497fa2"/>
  <path id="Path_5655" data-name="Path 5655" d="M34.992,10a24.954,24.954,0,0,0-1.465-8.443A12.483,12.483,0,0,0,15.682,8.443,9.993,9.993,0,1,0,7.727,26.391,6.641,6.641,0,0,0,8.9,34.964c.364.016.729.028,1.1.028A24.994,24.994,0,0,0,34.992,10Zm0,0" transform="translate(0 0)" fill="#7da9c6"/>
  <path id="Path_5656" data-name="Path 5656" d="M3.333,449.666A1.666,1.666,0,1,1,1.666,448,1.666,1.666,0,0,1,3.333,449.666Zm0,0" transform="translate(0 -401.345)" fill="#7da9c6"/>
  <path id="Path_5657" data-name="Path 5657" d="M54.665,379.333A3.333,3.333,0,1,1,51.333,376,3.333,3.333,0,0,1,54.665,379.333Zm0,0" transform="translate(-43.001 -336.843)" fill="#7da9c6"/>
  <g id="Group_6983" data-name="Group 6983" transform="translate(19.162 2.499)">
    <path id="Path_5658" data-name="Path 5658" d="M280,192h1.666v1.666H280Zm0,0" transform="translate(-270.002 -174.504)" fill="#fff"/>
    <path id="Path_5659" data-name="Path 5659" d="M248,192h1.666v1.666H248Zm0,0" transform="translate(-241.335 -174.504)" fill="#fff"/>
    <path id="Path_5660" data-name="Path 5660" d="M216,192h1.666v1.666H216Zm0,0" transform="translate(-212.667 -174.504)" fill="#fff"/>
    <path id="Path_5661" data-name="Path 5661" d="M184,192h1.666v1.666H184Zm0,0" transform="translate(-184 -174.504)" fill="#fff"/>
    <path id="Path_5662" data-name="Path 5662" d="M274,34h-1.666A8.341,8.341,0,0,0,264,25.666V24A10.008,10.008,0,0,1,274,34Zm0,0" transform="translate(-255.669 -24)" fill="#fff"/>
  </g>
</svg>
