<svg xmlns="http://www.w3.org/2000/svg" width="1368.673" height="52.948" viewBox="0 0 1368.673 52.948">
  <g id="Group_3047" data-name="Group 3047" transform="translate(-2420.288 -1208.684)">
    <g id="one-hundred" transform="translate(2516.028 1209.999)">
      <path id="Path_2521" data-name="Path 2521" d="M431.115,8.484V26.427a8.493,8.493,0,0,1-8.483,8.483c3.6,0,5.549-3.806,5.549-8.483V8.484c0-4.677-1.951-8.483-5.549-8.483A8.493,8.493,0,0,1,431.115,8.484Z" transform="translate(-382.516)" fill="#e0230d"/>
      <path id="Path_2522" data-name="Path 2522" d="M341.748,0c3.6,0,6.527,3.806,6.527,8.483V26.428c0,4.677-2.929,8.483-6.527,8.483a8.492,8.492,0,0,1-8.483-8.483V8.485A8.492,8.492,0,0,1,341.748,0Zm4.571,26.426V8.485a4.571,4.571,0,0,0-9.143,0V26.428a4.571,4.571,0,0,0,9.143,0Z" transform="translate(-301.631 -0.001)" fill="#ff5440"/>
      <path id="Path_2523" data-name="Path 2523" d="M221.475,8.484V26.427a8.493,8.493,0,0,1-8.483,8.483c3.6,0,5.549-3.806,5.549-8.483V8.484c0-4.677-1.951-8.483-5.549-8.483A8.493,8.493,0,0,1,221.475,8.484Z" transform="translate(-192.775)" fill="#e0230d"/>
      <path id="Path_2524" data-name="Path 2524" d="M132.107,0c3.6,0,6.527,3.806,6.527,8.483V26.428c0,4.677-2.929,8.483-6.527,8.483a8.492,8.492,0,0,1-8.483-8.483V8.485A8.492,8.492,0,0,1,132.107,0Zm4.571,26.426V8.485a4.571,4.571,0,1,0-9.143,0V26.428a4.571,4.571,0,1,0,9.143,0Z" transform="translate(-111.89 -0.001)" fill="#ff5440"/>
      <path id="Path_2525" data-name="Path 2525" d="M63.409.1a1.943,1.943,0,0,0-.615-.1l0,.1c0,.266-.978,1.013-.978,1.855v31a3.048,3.048,0,0,0,.978,1.956,1.956,1.956,0,0,0,1.956-1.956v-31A1.955,1.955,0,0,0,63.409.1Z" transform="translate(-55.946 -0.001)" fill="#e0230d"/>
      <path id="Path_2526" data-name="Path 2526" d="M5.281.784A1.954,1.954,0,0,1,6.848,0l0,.1V34.911A1.955,1.955,0,0,1,4.89,32.955V7.825L3.521,9.65A1.956,1.956,0,1,1,.391,7.3Z" transform="translate(0 -0.001)" fill="#ff5440"/>
      <g id="Group_2995" data-name="Group 2995" transform="translate(44.688 37.844)">
        <path id="Path_2527" data-name="Path 2527" d="M472.75,398.679h-1.956v3.911h1.956a1.956,1.956,0,1,0,0-3.911Z" transform="translate(-470.794 -398.679)" fill="#e0230d"/>
        <path id="Path_2528" data-name="Path 2528" d="M472.75,470.792h-1.956V474.7h1.956a1.956,1.956,0,1,0,0-3.911Z" transform="translate(-470.794 -463.947)" fill="#e0230d"/>
      </g>
      <g id="Group_2996" data-name="Group 2996" transform="translate(4.89 37.844)">
        <path id="Path_2529" data-name="Path 2529" d="M91.311,398.679a1.956,1.956,0,0,1,0,3.911H53.469a1.956,1.956,0,0,1,0-3.911Z" transform="translate(-51.513 -398.679)" fill="#ff5440"/>
        <path id="Path_2530" data-name="Path 2530" d="M91.311,470.792a1.956,1.956,0,0,1,0,3.911H53.469a1.956,1.956,0,0,1,0-3.911Z" transform="translate(-51.513 -463.947)" fill="#ff5440"/>
      </g>
    </g>
    <g id="target" transform="translate(2678.612 1209.98)">
      <circle id="Ellipse_20" data-name="Ellipse 20" cx="21.213" cy="21.213" r="21.213" transform="translate(0 6.188)" fill="#fd646f"/>
      <path id="Path_2634" data-name="Path 2634" d="M90.763,132.382A21.212,21.212,0,0,1,53.6,146.367a21.212,21.212,0,0,0,29.934-29.934A21.159,21.159,0,0,1,90.763,132.382Z" transform="translate(-48.336 -104.981)" fill="#fc4755"/>
      <circle id="Ellipse_21" data-name="Ellipse 21" cx="16.008" cy="16.008" r="16.008" transform="translate(5.205 11.394)" fill="#f5f5f5"/>
      <path id="Path_2635" data-name="Path 2635" d="M119.438,166.263a16.009,16.009,0,0,1-28.268,10.3A16.009,16.009,0,0,0,113.725,154,15.979,15.979,0,0,1,119.438,166.263Z" transform="translate(-82.216 -138.861)" fill="#e6e6e6"/>
      <circle id="Ellipse_22" data-name="Ellipse 22" cx="10.803" cy="10.803" r="10.803" transform="translate(10.41 16.599)" fill="#fd646f"/>
      <path id="Path_2636" data-name="Path 2636" d="M148.221,200.251a10.8,10.8,0,0,1-19.361,6.594,10.8,10.8,0,0,0,15.152-15.152A10.785,10.785,0,0,1,148.221,200.251Z" transform="translate(-116.205 -172.849)" fill="#fc4755"/>
      <circle id="Ellipse_23" data-name="Ellipse 23" cx="5.5" cy="5.5" r="5.5" transform="translate(15.714 21.902)" fill="#f5f5f5"/>
      <path id="Path_2637" data-name="Path 2637" d="M362.5,328.57a21.068,21.068,0,0,1-1.566,3.5l-4.736-2.209a15.848,15.848,0,0,0,1.548-3.5Z" transform="translate(-321.218 -294.284)" fill="#fc4755"/>
      <path id="Path_2638" data-name="Path 2638" d="M314.092,305.846a15.849,15.849,0,0,1-1.548,3.5l-4.754-2.217a10.7,10.7,0,0,0,1.512-3.52Z" transform="translate(-277.562 -273.778)" fill="#e6e6e6"/>
      <path id="Path_2639" data-name="Path 2639" d="M264.195,282.078a10.7,10.7,0,0,1-1.512,3.52l-4.912-2.29a5.482,5.482,0,0,0,1.4-3.575Z" transform="translate(-232.454 -252.243)" fill="#fc4755"/>
      <path id="Path_2640" data-name="Path 2640" d="M206.763,259.335a5.482,5.482,0,0,1-1.4,3.575l-4.6-2.146a1.913,1.913,0,0,1-1-2.365c.022-.06.045-.12.073-.18a1.916,1.916,0,0,1,2.545-.926Z" transform="translate(-180.05 -231.845)" fill="#e6e6e6"/>
      <g id="Group_3022" data-name="Group 3022" transform="translate(19.609 0.02)">
        <g id="Group_3020" data-name="Group 3020" transform="translate(16.046 7.984)">
          <path id="Path_2641" data-name="Path 2641" d="M375.828,82.185a.2.2,0,0,1,.107.332l-2.078,2.087-1.275,1.281-3.483,3.5a.982.982,0,0,1-.856.276l-5.2-.856,3.891-3.86,1.289-1.279,2.372-2.353Z" transform="translate(-363.048 -81.313)" fill="#50758d"/>
          <path id="Path_2642" data-name="Path 2642" d="M409.588,106.212l-1.275,1.281-5.643-.941,1.289-1.279Z" transform="translate(-398.779 -102.92)" fill="#2b597f"/>
        </g>
        <g id="Group_3021" data-name="Group 3021" transform="translate(12.712)">
          <path id="Path_2643" data-name="Path 2643" d="M337.5,5.736l-2.36,2.309L333.856,9.3l-3.877,3.794-.866-5.262a.982.982,0,0,1,.274-.854l3.5-3.5,1.28-1.282L336.282.077a.2.2,0,0,1,.333.108Z" transform="translate(-329.1 -0.02)" fill="#50758d"/>
          <path id="Path_2644" data-name="Path 2644" d="M369.895,28.031l-1.284,1.256-.971-5.823,1.28-1.282Z" transform="translate(-363.855 -20.006)" fill="#2b597f"/>
        </g>
        <path id="Path_2645" data-name="Path 2645" d="M225.261,37.4a1.907,1.907,0,0,1-.561,1.353L202.928,60.529a1.913,1.913,0,0,1-2.564.13c-.049-.04-.1-.083-.143-.13a1.915,1.915,0,0,1,0-2.708l21.772-21.772a1.913,1.913,0,0,1,2.708,0c.046.046.089.094.13.143A1.907,1.907,0,0,1,225.261,37.4Z" transform="translate(-199.66 -32.005)" fill="#918291"/>
        <path id="Path_2646" data-name="Path 2646" d="M231.727,43.874a1.907,1.907,0,0,1-.561,1.353L209.394,67a1.913,1.913,0,0,1-2.564.13L231.3,42.663a1.907,1.907,0,0,1,.431,1.211Z" transform="translate(-206.126 -38.475)" fill="#7a6e79"/>
      </g>
    </g>
    <g id="heart_1_" data-name="heart (1)" transform="translate(2767.785 1211.969)">
      <path id="Path_2662" data-name="Path 2662" d="M35.294,46.289l-6.5,3.375-6.5-3.375a54.216,54.216,0,0,1-10.78-7.316C3.668,32.064-1.782,22.664.541,11.844A14.568,14.568,0,0,1,17.9.388a14.8,14.8,0,0,1,10.889,10.79A14.8,14.8,0,0,1,39.682.388,13.909,13.909,0,0,1,44.457.13,14.765,14.765,0,0,1,57.044,11.844c3.3,15.376-9.073,27.874-21.75,34.446Zm0,0" transform="translate(0 -0.001)" fill="#c03a2b"/>
      <path id="Path_2663" data-name="Path 2663" d="M50.632,16.866A25.8,25.8,0,0,1,11.511,38.973C3.668,32.063-1.781,22.663.542,11.843A14.568,14.568,0,0,1,17.9.387a14.8,14.8,0,0,1,10.889,10.79A14.8,14.8,0,0,1,39.683.387,13.909,13.909,0,0,1,44.458.129a25.658,25.658,0,0,1,6.174,16.737Zm0,0" transform="translate(-0.001 0)" fill="#e64c3c"/>
      <path id="Path_2664" data-name="Path 2664" d="M23.2,15.8c-3.405-2.3-8.781-.309-12.008,4.459s-3.082,10.5.323,12.8,8.781.308,12.008-4.459S26.6,18.1,23.2,15.8Zm0,0" transform="translate(-7.865 -13.143)" fill="#fb7b76"/>
      <path id="Path_2665" data-name="Path 2665" d="M114.9,223.193c0-1.371-2-2.482-4.467-2.482s-4.467,1.111-4.467,2.482,2,2.481,4.467,2.481S114.9,224.563,114.9,223.193Zm0,0" transform="translate(-94.052 -195.864)" fill="#fb7b76"/>
      <path id="Path_2666" data-name="Path 2666" d="M335.59,223.193c0-1.371-2-2.482-4.467-2.482s-4.467,1.111-4.467,2.482,2,2.481,4.467,2.481S335.59,224.563,335.59,223.193Zm0,0" transform="translate(-289.922 -195.864)" fill="#fb7b76"/>
      <path id="Path_2667" data-name="Path 2667" d="M144.256,164.874a2.978,2.978,0,1,1,2.978-2.978A2.978,2.978,0,0,1,144.256,164.874Zm0,0" transform="translate(-125.39 -141.02)" fill="#2c3e50"/>
      <path id="Path_2668" data-name="Path 2668" d="M320.807,164.874a2.978,2.978,0,1,1,2.978-2.978A2.978,2.978,0,0,1,320.807,164.874Zm0,0" transform="translate(-282.088 -141.02)" fill="#2c3e50"/>
      <path id="Path_2669" data-name="Path 2669" d="M209.026,225.6c-5.887,0-5.956-3.931-5.956-3.971a.993.993,0,0,1,1.985-.019c.012.221.223,2,3.97,2,3.765,0,3.961-1.8,3.971-2.007a1.047,1.047,0,0,1,1.016-.958.983.983,0,0,1,.97.98C214.982,221.67,214.914,225.6,209.026,225.6Zm0,0" transform="translate(-180.234 -195.791)" fill="#802d40"/>
      <g id="Group_3026" data-name="Group 3026" transform="translate(16.88 18.891)">
        <path id="Path_2670" data-name="Path 2670" d="M152.091,168.739a.993.993,0,1,1-.993-.993A.993.993,0,0,1,152.091,168.739Zm0,0" transform="translate(-150.106 -167.746)" fill="#ecf0f1"/>
        <path id="Path_2671" data-name="Path 2671" d="M161.911,178.063a1.489,1.489,0,1,1-1.489-1.489A1.488,1.488,0,0,1,161.911,178.063Zm0,0" transform="translate(-157.941 -175.581)" fill="#ecf0f1"/>
        <path id="Path_2672" data-name="Path 2672" d="M328.642,168.739a.993.993,0,1,1-.993-.993A.993.993,0,0,1,328.642,168.739Zm0,0" transform="translate(-306.803 -167.746)" fill="#ecf0f1"/>
        <path id="Path_2673" data-name="Path 2673" d="M338.463,178.063a1.489,1.489,0,1,1-1.489-1.489A1.489,1.489,0,0,1,338.463,178.063Zm0,0" transform="translate(-314.639 -175.581)" fill="#ecf0f1"/>
      </g>
    </g>
    <g id="footprint" transform="translate(2847.28 1211.001)">
      <path id="Path_2622" data-name="Path 2622" d="M356.077,16.651l-.343-5.116a.54.54,0,0,1,.676-.559l3.32.873a.54.54,0,0,1,.3.833l-2.977,4.243A.54.54,0,0,1,356.077,16.651Z" transform="translate(-305.063 -9.918)" fill="#fe7d43"/>
      <path id="Path_2623" data-name="Path 2623" d="M362.492,18.458,359.515,22.7a.54.54,0,0,1-.981-.275l-.087-1.3L361.1,17.34l1.085.285A.539.539,0,0,1,362.492,18.458Z" transform="translate(-307.519 -15.694)" fill="#fd6930"/>
      <path id="Path_2624" data-name="Path 2624" d="M402.227,36.871l5.465-5.957a.54.54,0,0,1,.889.139l2.085,4.515a.54.54,0,0,1-.389.757l-7.55,1.442A.54.54,0,0,1,402.227,36.871Z" transform="translate(-347.012 -27.821)" fill="#fe7d43"/>
      <path id="Path_2625" data-name="Path 2625" d="M410.28,70.527l-7.55,1.442a.54.54,0,0,1-.5-.9l1.141-1.244,6.6-1.261a.521.521,0,0,0,.12-.038l.573,1.24A.54.54,0,0,1,410.28,70.527Z" transform="translate(-347.014 -62.023)" fill="#fd6930"/>
      <path id="Path_2626" data-name="Path 2626" d="M77.53,293l8.691-2.126a.541.541,0,0,1,.661.428l.8,5.352a4.633,4.633,0,0,1-8.9,2.444l-1.63-5.384A.541.541,0,0,1,77.53,293Z" transform="translate(-52.903 -263.238)" fill="#7acaa6"/>
      <g id="Group_3015" data-name="Group 3015" transform="translate(18.663 0)">
        <path id="Path_2627" data-name="Path 2627" d="M32.469,23.845c-1.649.4-7.237,1.944-8.9,2.4a.541.541,0,0,1-.647-.322c-2.5-6.318-4.58-9.478-4.221-14.734.31-4.542,2.466-9.121,6.981-10.8,3.636-1.353,6.669.988,7.93,4.344,1.623,4.322.185,8.767-.471,13.118a26.053,26.053,0,0,0-.318,3.6c0,.195.032,1.234.054,1.844a.539.539,0,0,1-.411.543Z" transform="translate(-18.663 -0.001)" fill="#7acaa6"/>
      </g>
      <g id="Group_3016" data-name="Group 3016" transform="translate(38.23 9.957)">
        <path id="Path_2628" data-name="Path 2628" d="M249.611,128.314c1.615.522,7.077,2.463,8.7,3.042a.54.54,0,0,0,.668-.274c2.952-6.12,5.255-9.121,5.277-14.39.019-4.481-1.913-9.328-6.181-11.279-3.528-1.613-6.723.5-8.224,3.758-1.932,4.193-.82,8.73-.48,13.117a26.041,26.041,0,0,1,.056,3.619c-.011.195-.122,1.228-.187,1.836A.539.539,0,0,0,249.611,128.314Z" transform="translate(-246.464 -104.859)" fill="#7acaa6"/>
        <path id="Path_2629" data-name="Path 2629" d="M235.263,393.519l-8.514-2.75a.541.541,0,0,0-.69.379l-1.187,5.28a4.633,4.633,0,0,0,8.7,3.082l2.016-5.252A.541.541,0,0,0,235.263,393.519Z" transform="translate(-224.722 -363.596)" fill="#7acaa6"/>
      </g>
      <g id="Group_3019" data-name="Group 3019" transform="translate(25.224 -0.001)">
        <g id="Group_3017" data-name="Group 3017" transform="translate(0 0)">
          <path id="Path_2630" data-name="Path 2630" d="M95.36,21.456c0,.194.032,1.234.054,1.845a.539.539,0,0,1-.411.543c-.378.092-.962.244-1.659.429a.539.539,0,0,0,.2-.439c-.021-.611-.057-1.649-.054-1.845a25.96,25.96,0,0,1,.317-3.6c.657-4.351,2.095-8.8.472-13.118C93.184,2.356,90.756.209,87.758.575c.151-.065.3-.127.461-.186,3.635-1.353,6.669.988,7.93,4.344,1.623,4.321.186,8.767-.471,13.118A25.993,25.993,0,0,0,95.36,21.456Z" transform="translate(-87.758 0.001)" fill="#57be92"/>
          <path id="Path_2631" data-name="Path 2631" d="M142.605,301.963a4.639,4.639,0,0,1-1.086.156,4.633,4.633,0,0,0,2.58-5.026l-.8-5.351a.543.543,0,0,0-.536-.445l1.746-.427a.541.541,0,0,1,.66.428l.8,5.352A4.633,4.633,0,0,1,142.605,301.963Z" transform="translate(-136.414 -263.237)" fill="#57be92"/>
        </g>
        <g id="Group_3018" data-name="Group 3018" transform="translate(15.372 10.004)">
          <path id="Path_2632" data-name="Path 2632" d="M336.788,117.14c-.023,5.269-2.326,8.27-5.278,14.39a.54.54,0,0,1-.668.275l-1.57-.559a.542.542,0,0,0,.368-.292c2.952-6.12,5.254-9.122,5.277-14.39.02-4.428-1.868-9.213-6.031-11.208a6.013,6.013,0,0,1,1.722.506C334.874,107.812,336.807,112.659,336.788,117.14Z" transform="translate(-321.362 -105.355)" fill="#57be92"/>
          <path id="Path_2633" data-name="Path 2633" d="M258.147,415.224l-2.016,5.252a4.631,4.631,0,0,1-5.732,2.46,4.55,4.55,0,0,1-.752-.339q.2.017.4.018a4.634,4.634,0,0,0,4.218-2.715l2.016-5.251a.542.542,0,0,0-.326-.74l1.871.577A.54.54,0,0,1,258.147,415.224Z" transform="translate(-249.647 -384.609)" fill="#57be92"/>
        </g>
      </g>
    </g>
    <g id="Group_3045" data-name="Group 3045" transform="translate(2379.559 1091.246)">
      <path id="Subtraction_19" data-name="Subtraction 19" d="M45.914,33.642H2a2,2,0,0,1-2-2V24.428a2,2,0,0,1,2-2H45.914a2,2,0,0,1,2,2v7.214A2,2,0,0,1,45.914,33.642ZM23.957,25.486a2.549,2.549,0,1,0,2.549,2.549A2.552,2.552,0,0,0,23.957,25.486Zm-15.291,0a2.549,2.549,0,1,0,2.549,2.549A2.552,2.552,0,0,0,8.666,25.486Zm30.583,0A2.549,2.549,0,1,0,41.8,28.034,2.552,2.552,0,0,0,39.249,25.485Zm6.665-14.271H2a2,2,0,0,1-2-2V2A2,2,0,0,1,2,0H45.914a2,2,0,0,1,2,2V9.214A2,2,0,0,1,45.914,11.214ZM23.957,3.058a2.549,2.549,0,1,0,2.549,2.549A2.552,2.552,0,0,0,23.957,3.058Zm-15.291,0a2.549,2.549,0,1,0,2.549,2.549A2.552,2.552,0,0,0,8.666,3.058Zm30.583,0A2.549,2.549,0,1,0,41.8,5.606,2.552,2.552,0,0,0,39.249,3.057Z" transform="translate(572 130.2)" fill="#b16e3d"/>
      <path id="Subtraction_15" data-name="Subtraction 15" d="M9.109,48.495H1.155L0,47.651V6.928L5,0l5.473,6.928.139,39.257v1.465l-1.506.844ZM5.077,35.931A2.549,2.549,0,1,0,7.625,38.48,2.552,2.552,0,0,0,5.077,35.931Zm0-22.428a2.548,2.548,0,1,0,2.549,2.549A2.552,2.552,0,0,0,5.077,13.5Z" transform="translate(575.589 119.754)" fill="#c6865c"/>
      <path id="Subtraction_20" data-name="Subtraction 20" d="M9.109,48.495H1.155L0,47.651V6.928L5,0l5.473,6.928.139,39.257v1.465l-1.506.844ZM5.077,35.931A2.549,2.549,0,1,0,7.625,38.48,2.552,2.552,0,0,0,5.077,35.931Zm0-22.428a2.548,2.548,0,1,0,2.549,2.549A2.552,2.552,0,0,0,5.077,13.5Z" transform="translate(590.88 119.754)" fill="#c6865c"/>
      <path id="Subtraction_22" data-name="Subtraction 22" d="M9.109,48.495H1.155L0,47.651V6.928L5,0l5.473,6.928.139,39.257v1.465l-1.506.844ZM5.077,35.931A2.549,2.549,0,1,0,7.625,38.48,2.552,2.552,0,0,0,5.077,35.931Zm0-22.428a2.548,2.548,0,1,0,2.549,2.549A2.552,2.552,0,0,0,5.077,13.5Z" transform="translate(606.172 119.754)" fill="#c6865c"/>
      <path id="Subtraction_16" data-name="Subtraction 16" d="M4.44,44.7H1.514L0,43.384V3.431L2.32,0,4.44,3.431V9.722a2.549,2.549,0,0,0,0,4.881V32.149a2.55,2.55,0,0,0,0,4.881V44.7Z" transform="translate(575.489 123.644)" fill="#ce9875"/>
      <path id="Subtraction_21" data-name="Subtraction 21" d="M4.44,44.7H1.514L0,43.384V3.431L2.32,0,4.44,3.431V9.722a2.549,2.549,0,0,0,0,4.881V32.149a2.55,2.55,0,0,0,0,4.881V44.7Z" transform="translate(590.781 123.644)" fill="#ce9875"/>
      <path id="Subtraction_23" data-name="Subtraction 23" d="M4.44,44.7H1.514L0,43.384V3.431L2.32,0,4.44,3.431V9.722a2.549,2.549,0,0,0,0,4.881V32.149a2.55,2.55,0,0,0,0,4.881V44.7Z" transform="translate(606.072 123.644)" fill="#ce9875"/>
    </g>
    <g id="thinking" transform="translate(3040.224 1211.165)">
      <circle id="Ellipse_10" data-name="Ellipse 10" cx="23.711" cy="23.711" r="23.711" transform="translate(-0.158 -0.165)" fill="#ffe17d"/>
      <g id="Group_2981" data-name="Group 2981" transform="translate(-0.176 5.143)">
        <path id="Path_2488" data-name="Path 2488" d="M27.217,96.132A23.763,23.763,0,0,1,8.777,57.376,23.764,23.764,0,1,0,42.207,90.8,23.664,23.664,0,0,1,27.217,96.132Z" transform="translate(-0.001 -57.376)" fill="#ffd164"/>
        <path id="Path_2489" data-name="Path 2489" d="M61.815,309.733h0a1.538,1.538,0,0,0,1.533-1.533h0a1.538,1.538,0,0,0-1.533-1.533h.767a1.538,1.538,0,0,0,1.533-1.533h0a1.538,1.538,0,0,0-1.533-1.533h.767a1.538,1.538,0,0,0,1.533-1.533h0a1.538,1.538,0,0,0-1.533-1.533h8.433A1.533,1.533,0,0,0,73.315,299h0a1.533,1.533,0,0,0-1.533-1.533h-13.8a2.3,2.3,0,0,1-2.3-2.3v-4.6a1.533,1.533,0,0,0-1.533-1.533h0a1.533,1.533,0,0,0-1.533,1.533v3.753a4.6,4.6,0,0,1-1.008,2.874l-.715.893a6.134,6.134,0,0,0-1.344,3.831v3.215a4.6,4.6,0,0,0,4.6,4.6h7.666Z" transform="translate(-44.949 -267.528)" fill="#ffd164"/>
      </g>
      <g id="Group_2982" data-name="Group 2982" transform="translate(4.424 26.649)">
        <path id="Path_2490" data-name="Path 2490" d="M63.35,308.2h-9.2a3.07,3.07,0,0,1-3.067-3.066v-3.215a4.617,4.617,0,0,1,1.008-2.874l.715-.893a6.155,6.155,0,0,0,1.344-3.831v-5.286a1.533,1.533,0,0,0-1.533,1.533v3.753a4.6,4.6,0,0,1-1.008,2.873l-.715.893a6.133,6.133,0,0,0-1.344,3.831v3.215a4.6,4.6,0,0,0,4.6,4.6h7.666A1.538,1.538,0,0,0,63.35,308.2Z" transform="translate(-49.55 -289.033)" fill="#ffc350"/>
        <path id="Path_2491" data-name="Path 2491" d="M193.178,396.387H182.445a.767.767,0,1,0,0,1.533h9.2A1.533,1.533,0,0,0,193.178,396.387Z" transform="translate(-169.412 -386.421)" fill="#ffc350"/>
        <path id="Path_2492" data-name="Path 2492" d="M173.42,430.186a.767.767,0,0,0,.767.767h1.533a1.538,1.538,0,0,0,1.533-1.533h-3.067A.767.767,0,0,0,173.42,430.186Z" transform="translate(-161.92 -416.386)" fill="#ffc350"/>
        <path id="Path_2493" data-name="Path 2493" d="M165.162,463.218a.767.767,0,0,0,.767.767h1.533A1.538,1.538,0,0,0,169,462.452h-3.067A.767.767,0,0,0,165.162,463.218Z" transform="translate(-154.429 -446.352)" fill="#ffc350"/>
      </g>
      <g id="Group_2983" data-name="Group 2983" transform="translate(8.065 8.726)">
        <path id="Path_2494" data-name="Path 2494" d="M175.266,293.815a.955.955,0,0,1-.43-.1,29.694,29.694,0,0,0-11.119-2.772.959.959,0,0,1-.937-.98.946.946,0,0,1,.98-.936A31.117,31.117,0,0,1,175.7,292a.958.958,0,0,1-.433,1.814Z" transform="translate(-155.91 -271.101)" fill="#aa7346"/>
        <path id="Path_2495" data-name="Path 2495" d="M98.163,99.526a.953.953,0,0,1-.6-.208,7.168,7.168,0,0,0-7.409-.66.958.958,0,1,1-.857-1.715,9.077,9.077,0,0,1,9.46.876.958.958,0,0,1-.6,1.707Z" transform="translate(-88.773 -95.979)" fill="#aa7346"/>
        <path id="Path_2496" data-name="Path 2496" d="M296.182,117a.958.958,0,0,1-.187-1.9l7.667-1.533a.958.958,0,0,1,.376,1.879l-7.666,1.533A.965.965,0,0,1,296.182,117Z" transform="translate(-276.059 -111.918)" fill="#aa7346"/>
      </g>
      <path id="Path_2497" data-name="Path 2497" d="M135.568,155.829h0a1.917,1.917,0,0,1-1.668-2.137l.188-1.522a1.917,1.917,0,0,1,2.137-1.668h0a1.917,1.917,0,0,1,1.668,2.137l-.188,1.522A1.917,1.917,0,0,1,135.568,155.829Z" transform="translate(-121.633 -136.702)" fill="#7d5046"/>
      <path id="Path_2498" data-name="Path 2498" d="M152.068,150.505a1.924,1.924,0,0,0-.385-.008l-.324,2.625a1.15,1.15,0,1,0,2.283.281l.094-.761A1.917,1.917,0,0,0,152.068,150.505Z" transform="translate(-137.476 -136.704)" fill="#9c6846"/>
      <path id="Path_2499" data-name="Path 2499" d="M308.471,173.894h0a1.917,1.917,0,0,1-1.668-2.137l.188-1.522a1.917,1.917,0,0,1,2.137-1.668h0A1.917,1.917,0,0,1,310.8,170.7l-.188,1.522A1.917,1.917,0,0,1,308.471,173.894Z" transform="translate(-278.484 -153.089)" fill="#7d5046"/>
      <path id="Path_2500" data-name="Path 2500" d="M324.971,168.569a1.921,1.921,0,0,0-.385-.009l-.324,2.625a1.15,1.15,0,0,0,2.283.282l.094-.761A1.917,1.917,0,0,0,324.971,168.569Z" transform="translate(-294.327 -153.091)" fill="#9c6846"/>
    </g>
    <g id="eyes" transform="translate(3128.063 1130.038)">
      <ellipse id="Ellipse_15" data-name="Ellipse 15" cx="13.318" cy="20.023" rx="13.318" ry="20.023" transform="translate(0.039 80.962)" fill="#dbdbdb"/>
      <path id="Path_2550" data-name="Path 2550" d="M14.83,189.385c-9.055,0-15.206-13.087-12.793-25.6-5.614,13.588,1.1,30.572,11.321,30.572,6.067,0,11.186-6.1,12.793-14.44C23.8,185.6,19.61,189.385,14.83,189.385Z" transform="translate(0 -73.344)" fill="#cecece"/>
      <ellipse id="Ellipse_16" data-name="Ellipse 16" cx="11.486" cy="17.268" rx="11.486" ry="17.268" transform="translate(0.039 83.717)" fill="#eae9e8"/>
      <path id="Path_2551" data-name="Path 2551" d="M11.827,201.866a8.89,8.89,0,0,0,6.134-2.667C8.327,202.333.1,189.369,2.115,175.376-2.656,186.708,2.737,201.866,11.827,201.866Z" transform="translate(-0.302 -83.614)" fill="#dbdbdb"/>
      <path id="Path_2552" data-name="Path 2552" d="M9.513,213.881A6.118,6.118,0,0,1,.383,209.19h0a6.107,6.107,0,0,1,9.634-5.562h0A6.114,6.114,0,0,1,9.513,213.881Z" transform="translate(-0.312 -107.607)" fill="#656566"/>
      <path id="Path_2553" data-name="Path 2553" d="M2.946,209.7h0A6.134,6.134,0,0,1,4.782,204.7,6.111,6.111,0,0,0,.4,211.17h0a6.12,6.12,0,0,0,10.328,3.795C8.087,215.729,3.311,213.47,2.946,209.7Z" transform="translate(-0.325 -109.586)" fill="#4f4f51"/>
      <ellipse id="Ellipse_17" data-name="Ellipse 17" cx="13.318" cy="20.023" rx="13.318" ry="20.023" transform="translate(31.932 80.962)" fill="#dbdbdb"/>
      <path id="Path_2554" data-name="Path 2554" d="M293.628,189.385c-9.055,0-15.206-13.087-12.793-25.6-5.614,13.588,1.1,30.572,11.321,30.572,6.067,0,11.186-6.1,12.793-14.44C302.6,185.6,298.408,189.385,293.628,189.385Z" transform="translate(-246.906 -73.344)" fill="#cecece"/>
      <ellipse id="Ellipse_18" data-name="Ellipse 18" cx="11.486" cy="17.268" rx="11.486" ry="17.268" transform="translate(31.93 83.717)" fill="#eae9e8"/>
      <path id="Path_2555" data-name="Path 2555" d="M290.5,201.867a8.89,8.89,0,0,0,6.134-2.667c-9.715,3.161-17.847-9.937-15.845-23.823C275.951,186.875,281.508,201.867,290.5,201.867Z" transform="translate(-247.086 -83.615)" fill="#dbdbdb"/>
      <path id="Path_2556" data-name="Path 2556" d="M288.311,213.881a6.118,6.118,0,0,1-9.131-4.691h0a6.107,6.107,0,0,1,9.634-5.562h0A6.114,6.114,0,0,1,288.311,213.881Z" transform="translate(-247.218 -107.607)" fill="#656566"/>
      <path id="Path_2557" data-name="Path 2557" d="M281.744,209.7h0a6.134,6.134,0,0,1,1.837-4.994,6.111,6.111,0,0,0-4.386,6.467h0a6.12,6.12,0,0,0,10.328,3.795C286.885,215.729,282.11,213.47,281.744,209.7Z" transform="translate(-247.231 -109.586)" fill="#4f4f51"/>
    </g>
    <g id="arrows" transform="translate(3227.205 1170.343)">
      <g id="Group_3000" data-name="Group 3000" transform="translate(0.001 52.738)">
        <path id="Path_2566" data-name="Path 2566" d="M7.2,184.522a1.2,1.2,0,0,0,1.884-1.088v-2.1H14v18.382a.283.283,0,0,0,.283.283h6V178.186a2.12,2.12,0,0,0-2.114-2.114H9.082v-2.1A1.2,1.2,0,0,0,7.2,172.887L.68,177.67a1.127,1.127,0,0,0,0,2.068Z" transform="translate(-0.001 -172.668)" fill="#ffd772" fill-rule="evenodd"/>
      </g>
      <g id="Group_3001" data-name="Group 3001" transform="translate(17.763 40.657)">
        <path id="Path_2567" data-name="Path 2567" d="M196.619,49.18v9.076l-2.2,11.371,2.2,10.444H202.9l1.8-8.717L202.9,64.7V49.18h1.3a1.125,1.125,0,0,0,1.021-1.769l-4.49-6.115a1.056,1.056,0,0,0-1.94,0l-4.49,6.115a1.125,1.125,0,0,0,1.021,1.769Z" transform="translate(-194.098 -40.657)" fill="#eb5468" fill-rule="evenodd"/>
      </g>
      <g id="Group_3002" data-name="Group 3002" transform="translate(26.57 59.186)">
        <path id="Path_2568" data-name="Path 2568" d="M292.444,246.532a2.12,2.12,0,0,0-2.114,2.114v15.367h6a.283.283,0,0,0,.283-.283V251.794h4.917v2.1a1.2,1.2,0,0,0,1.884,1.088l6.518-4.786a1.24,1.24,0,0,0,.681-1.029v-.008a1.243,1.243,0,0,0-.681-1.029l-6.518-4.784a1.2,1.2,0,0,0-1.884,1.085v2.1h-9.089Z" transform="translate(-290.33 -243.127)" fill="#b1e4f9" fill-rule="evenodd"/>
      </g>
      <g id="Group_3003" data-name="Group 3003" transform="translate(29.7 64.087)">
        <path id="Path_2569" data-name="Path 2569" d="M326.25,298.346c-1.978,0-1.705,1.117-1.705,3.052v11.267h2.86a.283.283,0,0,0,.283-.283V300.447H332.6v2.1a1.2,1.2,0,0,0,1.884,1.088l6.518-4.786a1.24,1.24,0,0,0,.681-1.029v-.008a1.243,1.243,0,0,0-.681-1.029l-.136-.1-5.559,4.18c-.82.534-1.486.457-1.507-.687,0-1.788-1.093-1.828-2.7-1.828H326.25Z" transform="translate(-324.532 -296.681)" fill="#75cef8" fill-rule="evenodd"/>
      </g>
      <g id="Group_3004" data-name="Group 3004" transform="translate(22.169 40.657)">
        <path id="Path_2570" data-name="Path 2570" d="M242.235,41.689l3.645,4.861c.5.77.609,1.4-.465,1.419-1.336,0-1.3.275-1.3,1.5v30.6h2.517V49.18h1.3a1.125,1.125,0,0,0,1.021-1.769l-4.49-6.115a1.056,1.056,0,0,0-1.94,0Z" transform="translate(-242.235 -40.657)" fill="#e5384f" fill-rule="evenodd"/>
      </g>
      <g id="Group_3005" data-name="Group 3005" transform="translate(4.654 52.738)">
        <path id="Path_2571" data-name="Path 2571" d="M53.312,178.221h9.452c1.163,0,1.17.575,1.17,1.737V200h2.544V178.186a2.12,2.12,0,0,0-2.114-2.114H55.276v-2.1a1.2,1.2,0,0,0-1.884-1.088l-2.544,1.868a1.2,1.2,0,0,1,1.884,1.088v1.852C52.732,178.344,52.644,178.221,53.312,178.221Z" transform="translate(-50.848 -172.668)" fill="#fbba58" fill-rule="evenodd"/>
      </g>
    </g>
    <g id="blocks" transform="translate(3314.635 1145.684)">
      <path id="Path_2558" data-name="Path 2558" d="M217.964,65h-7.549A1.415,1.415,0,0,0,209,66.415v6.039a1.415,1.415,0,0,0,1.415,1.415h7.549a1.415,1.415,0,0,0,1.415-1.415V66.415A1.415,1.415,0,0,0,217.964,65Z" transform="translate(-189.279)" fill="#ff515e"/>
      <path id="Path_2559" data-name="Path 2559" d="M377.964,65h-7.549A1.415,1.415,0,0,0,369,66.415v6.039a1.415,1.415,0,0,0,1.415,1.415h7.549a1.415,1.415,0,0,0,1.415-1.415V66.415A1.415,1.415,0,0,0,377.964,65Z" transform="translate(-334.181)" fill="#c6507a"/>
      <path id="Path_2560" data-name="Path 2560" d="M208.611,129.415V143a1.416,1.416,0,0,1-1.415,1.415h-28.78A1.416,1.416,0,0,1,177,143V129.415A1.416,1.416,0,0,1,178.415,128H207.2A1.416,1.416,0,0,1,208.611,129.415Z" transform="translate(-160.298 -57.055)" fill="#ff6888"/>
      <path id="Path_2561" data-name="Path 2561" d="M359.852,129.415V143a1.416,1.416,0,0,1-1.415,1.415H344V128h14.437A1.416,1.416,0,0,1,359.852,129.415Z" transform="translate(-311.54 -57.055)" fill="#ff515e"/>
      <path id="Path_2562" data-name="Path 2562" d="M344.852,273H330.415A1.415,1.415,0,0,0,329,274.415V288a1.415,1.415,0,0,0,1.415,1.415h14.437A1.415,1.415,0,0,0,346.268,288V274.415A1.415,1.415,0,0,0,344.852,273Z" transform="translate(-297.956 -188.373)" fill="#f4de48"/>
      <path id="Path_2563" data-name="Path 2563" d="M41.964,209H34.415A1.415,1.415,0,0,0,33,210.415v6.039a1.415,1.415,0,0,0,1.415,1.415h7.549a1.415,1.415,0,0,0,1.415-1.415v-6.039A1.415,1.415,0,0,0,41.964,209Z" transform="translate(-29.886 -130.412)" fill="#554fb2"/>
      <path id="Path_2564" data-name="Path 2564" d="M33.875,274.415V288a1.416,1.416,0,0,1-1.415,1.415H1.415A1.416,1.416,0,0,1,0,288V274.415A1.416,1.416,0,0,1,1.415,273H32.46A1.416,1.416,0,0,1,33.875,274.415Z" transform="translate(0 -188.373)" fill="#736dd9"/>
      <path id="Path_2565" data-name="Path 2565" d="M193.268,274.415V288a1.416,1.416,0,0,1-1.415,1.415H176V273h15.852A1.416,1.416,0,0,1,193.268,274.415Z" transform="translate(-159.393 -188.373)" fill="#554fb2"/>
    </g>
    <g id="calendar_1_" data-name="calendar (1)" transform="translate(3403.522 1203.184)">
      <path id="Path_2579" data-name="Path 2579" d="M0,115.018v30.219H21.675l2.069-14.75-2.069-15.469L11.512,112.5Z" transform="translate(0 -97.377)" fill="#f5f8f9"/>
      <path id="Path_2580" data-name="Path 2580" d="M262.675,110.468,252.332,107.5,241,110.468v30.219h21.675Z" transform="translate(-219.325 -92.826)" fill="#e3eaee"/>
      <path id="Path_2581" data-name="Path 2581" d="M0,50.5v8.094H21.675l1.709-3.867L21.675,50.5Z" transform="translate(0 -40.953)" fill="#ff3f5c"/>
      <path id="Path_2582" data-name="Path 2582" d="M241,50.5h21.675v8.094H241Z" transform="translate(-219.325 -40.953)" fill="#ca2e43"/>
      <path id="Path_2583" data-name="Path 2583" d="M105.5,5.5h2.7v8.094h-2.7Z" transform="translate(-96.011)" fill="#c2bce0"/>
      <path id="Path_2584" data-name="Path 2584" d="M346.5,5.5h2.7v8.094h-2.7Z" transform="translate(-315.336)" fill="#a299d1"/>
      <path id="Path_2585" data-name="Path 2585" d="M118,293.5v2.7h11.062l1.169-1.349-1.169-1.349Z" transform="translate(-107.387 -262.098)" fill="#fc6"/>
      <path id="Path_2586" data-name="Path 2586" d="M242.943,184.894l-1.908,1.908,7.86,7.86H241v2.7h7.716l-7.68,7.68,1.908,1.908,11.027-11.027Z" transform="translate(-219.325 -163.26)" fill="#ffa64d"/>
    </g>
    <g id="group_1_" data-name="group (1)" transform="translate(3487.447 1120.266)">
      <path id="Path_2587" data-name="Path 2587" d="M14.207,292.214,11.2,291.087a1.464,1.464,0,0,1-.95-1.371v-1.182H5.857v1.182a1.464,1.464,0,0,1-.95,1.371L1.9,292.214A2.928,2.928,0,0,0,0,294.956v5.292a1.464,1.464,0,0,0,1.464,1.464H16.107v-6.756A2.929,2.929,0,0,0,14.207,292.214Z" transform="translate(0 -176.832)" fill="#e6af78"/>
      <path id="Path_2588" data-name="Path 2588" d="M59.4,290.73a6.544,6.544,0,0,0,2.333-.434,1.442,1.442,0,0,1-.136-.581v-1.182H57.206v1.182a1.439,1.439,0,0,1-.136.58A6.541,6.541,0,0,0,59.4,290.73Z" transform="translate(-51.349 -176.832)" fill="#d29b6e"/>
      <path id="Path_2589" data-name="Path 2589" d="M1.464,325.012H16.107v-6.756a2.928,2.928,0,0,0-1.9-2.742l-2.892-1.084-2.226,2.226a1.464,1.464,0,0,1-2.071,0L4.792,314.43,1.9,315.514A2.928,2.928,0,0,0,0,318.256v5.292A1.464,1.464,0,0,0,1.464,325.012Z" transform="translate(0 -200.132)" fill="#dbd9dc"/>
      <path id="Path_2590" data-name="Path 2590" d="M34.367,184.123h-.057a5.1,5.1,0,0,1-5.1-5.1v-2.253a5.1,5.1,0,0,1,5.1-5.1h.057a5.1,5.1,0,0,1,5.1,5.1v2.253A5.1,5.1,0,0,1,34.367,184.123Z" transform="translate(-26.286 -71.689)" fill="#f0c087"/>
      <path id="Path_2591" data-name="Path 2591" d="M32.143,179v-2.2a5.125,5.125,0,0,1,3.661-4.91,5.121,5.121,0,0,0-6.589,4.91V179a5.121,5.121,0,0,0,6.589,4.91A5.125,5.125,0,0,1,32.143,179Z" transform="translate(-26.286 -71.689)" fill="#e6af78"/>
      <g id="Group_3012" data-name="Group 3012" transform="translate(0 116.557)">
        <path id="Path_2592" data-name="Path 2592" d="M2.285,338.79.462,336.967A2.918,2.918,0,0,0,0,338.534v5.292a1.464,1.464,0,0,0,1.464,1.464H2.928v-4.947A2.2,2.2,0,0,0,2.285,338.79Z" transform="translate(0 -336.967)" fill="#edebed"/>
        <path id="Path_2593" data-name="Path 2593" d="M73.036,338.892v8.13H74.5v-8.13A1.458,1.458,0,0,1,73.036,338.892Z" transform="translate(-65.715 -338.699)" fill="#edebed"/>
      </g>
      <circle id="Ellipse_19" data-name="Ellipse 19" cx="2.928" cy="2.928" r="2.928" transform="translate(5.125 97.06)" fill="#6e4b53"/>
      <path id="Path_2594" data-name="Path 2594" d="M29.214,176.8v1.643a7.634,7.634,0,0,0,2.564-1.891.717.717,0,0,1,.9-.149,16.085,16.085,0,0,0,6.783,1.809V176.8a5.125,5.125,0,0,0-5.125-5.125h0A5.125,5.125,0,0,0,29.214,176.8Z" transform="translate(-26.286 -71.689)" fill="#5c414b"/>
      <path id="Path_2595" data-name="Path 2595" d="M31.541,180a5.117,5.117,0,0,0-2.327,4.291v1.643a7.633,7.633,0,0,0,2.564-1.891.686.686,0,0,1,.446-.236A5.8,5.8,0,0,1,31.541,180Z" transform="translate(-26.286 -79.177)" fill="#503441"/>
      <path id="Path_2596" data-name="Path 2596" d="M352.4,256.761l-3.681-1.7a1.414,1.414,0,0,1-.8-1.289v-2.609H342.5v2.609a1.414,1.414,0,0,1-.8,1.289l-3.681,1.7a2.828,2.828,0,0,0-1.608,2.578v8.745h16.248a1.383,1.383,0,0,0,1.354-1.41v-7.334A2.828,2.828,0,0,0,352.4,256.761Z" transform="translate(-302.685 -143.204)" fill="#fad7a5"/>
      <path id="Path_2597" data-name="Path 2597" d="M352.4,291.854l-3.656-1.692-2.58,2.58a1.354,1.354,0,0,1-1.915,0l-2.58-2.58-3.656,1.692a2.828,2.828,0,0,0-1.608,2.578v8.745h16.248a1.383,1.383,0,0,0,1.354-1.41v-7.334A2.828,2.828,0,0,0,352.4,291.854Z" transform="translate(-302.685 -178.297)" fill="#dbd9dc"/>
      <path id="Path_2598" data-name="Path 2598" d="M395.439,251.159v2.609a1.445,1.445,0,0,1-.2.715,6.085,6.085,0,0,0,5.806,0,1.445,1.445,0,0,1-.2-.715v-2.609Z" transform="translate(-355.624 -143.204)" fill="#f0c891"/>
      <path id="Path_2599" data-name="Path 2599" d="M381.668,199.177h0a4.739,4.739,0,0,1-4.739-4.739v-4.062h9.478v4.062A4.739,4.739,0,0,1,381.668,199.177Z" transform="translate(-339.145 -88.514)" fill="#ffe1b4"/>
      <path id="Path_2600" data-name="Path 2600" d="M379.637,194.438v-4.062h-2.708v4.062a4.735,4.735,0,0,0,6.093,4.54A4.739,4.739,0,0,1,379.637,194.438Z" transform="translate(-339.145 -88.514)" fill="#fad7a5"/>
      <path id="Path_2601" data-name="Path 2601" d="M376.269,156.609h-1.354a4.739,4.739,0,0,0-4.739,4.739v1.083a.674.674,0,0,0,.976.608,6.56,6.56,0,0,0,2.034-1.767.665.665,0,0,1,.933-.119c2.148,1.6,5.14,1.235,6.35,1a.673.673,0,0,0,.539-.663v-.138A4.739,4.739,0,0,0,376.269,156.609Z" transform="translate(-333.069 -58.132)" fill="#d59f63"/>
      <path id="Path_2602" data-name="Path 2602" d="M371.151,168.459a6.559,6.559,0,0,0,2.034-1.767.616.616,0,0,1,.321-.214,5.449,5.449,0,0,1-.9-3.845,4.735,4.735,0,0,0-2.428,4.135v1.083A.674.674,0,0,0,371.151,168.459Z" transform="translate(-333.068 -63.552)" fill="#cd915a"/>
      <g id="Group_3013" data-name="Group 3013" transform="translate(41.846 114.654)">
        <path id="Path_2603" data-name="Path 2603" d="M478.232,325.109a2.031,2.031,0,0,1,.595-1.436l2.546-2.546a2.914,2.914,0,0,1,.244,1.166v7.334a1.383,1.383,0,0,1-1.354,1.41h-2.031v-5.929Z" transform="translate(-472.139 -320.811)" fill="#edebed"/>
        <path id="Path_2604" data-name="Path 2604" d="M417.451,317.985v10.226H418.8V317.985A1.349,1.349,0,0,1,417.451,317.985Z" transform="translate(-417.451 -317.985)" fill="#edebed"/>
      </g>
      <path id="Path_2605" data-name="Path 2605" d="M162.891,216.72l-4.583-2.122a1.761,1.761,0,0,1-1-1.6v-3.249h-6.744v3.249a1.761,1.761,0,0,1-1,1.6l-4.584,2.122a3.522,3.522,0,0,0-2,3.21v9.134a1.722,1.722,0,0,0,1.686,1.756h18.547a1.722,1.722,0,0,0,1.686-1.756V219.93A3.522,3.522,0,0,0,162.891,216.72Z" transform="translate(-128.642 -105.94)" fill="#b48764"/>
      <path id="Path_2606" data-name="Path 2606" d="M144.659,274.523h18.547a1.722,1.722,0,0,0,1.686-1.756v-9.133a3.522,3.522,0,0,0-2-3.21l-4.552-2.107-3.212,3.212a1.686,1.686,0,0,1-2.385,0l-3.212-3.212-4.552,2.108a3.522,3.522,0,0,0-2,3.21v9.134A1.722,1.722,0,0,0,144.659,274.523Z" transform="translate(-128.641 -149.642)" fill="#5d5360"/>
      <path id="Path_2607" data-name="Path 2607" d="M216.485,209.744v3.249a1.8,1.8,0,0,1-.243.891,7.577,7.577,0,0,0,7.23,0,1.8,1.8,0,0,1-.243-.891v-3.249Z" transform="translate(-194.565 -105.94)" fill="#966d50"/>
      <path id="Path_2608" data-name="Path 2608" d="M199.336,145.013h0a5.9,5.9,0,0,1-5.9-5.9v-5.058h11.8v5.058A5.9,5.9,0,0,1,199.336,145.013Z" transform="translate(-174.045 -37.837)" fill="#c39772"/>
      <path id="Path_2609" data-name="Path 2609" d="M196.806,139.11v-5.058h-3.372v5.058a5.9,5.9,0,0,0,7.587,5.654A5.9,5.9,0,0,1,196.806,139.11Z" transform="translate(-174.044 -37.836)" fill="#b48764"/>
      <path id="Path_2610" data-name="Path 2610" d="M192.612,92h-1.686a5.9,5.9,0,0,0-5.9,5.9v1.349a.84.84,0,0,0,1.215.758,8.17,8.17,0,0,0,2.533-2.2.828.828,0,0,1,1.162-.148c2.675,2,6.4,1.537,7.908,1.24a.838.838,0,0,0,.672-.826V97.9A5.9,5.9,0,0,0,192.612,92Z" transform="translate(-166.478 0)" fill="#5c414b"/>
      <path id="Path_2611" data-name="Path 2611" d="M186.24,106.759a8.169,8.169,0,0,0,2.533-2.2.767.767,0,0,1,.4-.267,6.786,6.786,0,0,1-1.125-4.788,5.9,5.9,0,0,0-3.023,5.149V106A.84.84,0,0,0,186.24,106.759Z" transform="translate(-166.477 -6.75)" fill="#503441"/>
      <g id="Group_3014" data-name="Group 3014" transform="translate(14.332 112.146)">
        <path id="Path_2612" data-name="Path 2612" d="M147.188,301.832a2.529,2.529,0,0,0-.741-1.788l-3.171-3.171a3.629,3.629,0,0,0-.3,1.452v9.134a1.722,1.722,0,0,0,1.686,1.756h2.529Z" transform="translate(-142.973 -296.481)" fill="#6f6571"/>
        <path id="Path_2613" data-name="Path 2613" d="M319.586,301.832a2.529,2.529,0,0,1,.741-1.788l3.171-3.171a3.629,3.629,0,0,1,.3,1.452v9.134a1.722,1.722,0,0,1-1.686,1.756h-2.529v-7.383Z" transform="translate(-301.882 -296.481)" fill="#6f6571"/>
        <path id="Path_2614" data-name="Path 2614" d="M243.895,292.962V305.7h1.686V292.962A1.68,1.68,0,0,1,243.895,292.962Z" transform="translate(-233.778 -292.962)" fill="#6f6571"/>
      </g>
    </g>
    <g id="Page-1" transform="translate(3578.922 1208.684)">
      <g id="_026---Idea" data-name="026---Idea" transform="translate(0.424)">
        <path id="Shape" d="M6.4,30.33H4.365a.73.73,0,0,0-.716.592L.45,47.34a1.461,1.461,0,0,0,1.439,1.738H17.643c0,.8,1.636,1.461,3.652,1.461s3.652-.657,3.652-1.461H40.7a1.461,1.461,0,0,0,1.439-1.738l-3.2-16.419a.73.73,0,0,0-.716-.592Z" transform="translate(-0.424 -8.178)" fill="#e64c3c"/>
        <path id="Shape-2" data-name="Shape" d="M22.6,31.7V45.4a16.909,16.909,0,0,0-3.323-1.052,24.986,24.986,0,0,0-13.066.665.736.736,0,0,1-.942-.818L7.7,29.575l.2-1.234a.736.736,0,0,1,.614-.606c.5-.073,1.008-.146,1.519-.2a5.21,5.21,0,0,0,4.631,2.827c.131,0,.256-.007.38-.015a5.441,5.441,0,0,0,1.424-.307.1.1,0,0,0,.015.044,3.84,3.84,0,0,0,3.623,2.549A3.774,3.774,0,0,0,22.6,31.7Z" transform="translate(-1.727 -7.423)" fill="#f5efca"/>
        <path id="Shape-3" data-name="Shape" d="M45.389,45.028a24.986,24.986,0,0,0-13.066-.665A16.909,16.909,0,0,0,29,45.415v-13.7a3.255,3.255,0,0,0,.424-.416,6.189,6.189,0,0,0,2.293.438h.044a2.53,2.53,0,0,0,.57,1.424,5.5,5.5,0,0,0,2.564,1.432,4,4,0,0,1,1.811,1.2,1.547,1.547,0,0,0,1.789.46,1.525,1.525,0,0,0,.92-1.395,1.486,1.486,0,0,0-.073-.467c-.073-.226-.153-.453-.248-.672a5.7,5.7,0,0,0-.716-1.271,5.457,5.457,0,0,0,2.768-3.8c.022-.029.051-.058.073-.088a3.852,3.852,0,0,0,.606-.979c.424.051.84.1,1.256.168a.736.736,0,0,1,.614.606l.2,1.234L46.332,44.21a.736.736,0,0,1-.942.818Z" transform="translate(-8.129 -7.437)" fill="#f9eab0"/>
        <path id="Shape-4" data-name="Shape" d="M31.3,54.533c0,.8-1.636,1.461-3.652,1.461S24,55.337,24,54.533l.329-3.973a16.909,16.909,0,0,1,3.323,1.052,16.909,16.909,0,0,1,3.323-1.052Z" transform="translate(-6.781 -13.633)" fill="#c03a2b"/>
        <path id="Shape-5" data-name="Shape" d="M37.293,21.044a3.81,3.81,0,0,1-.321,1.526,3.852,3.852,0,0,1-.606.979c-.022.029-.051.058-.073.088a5.457,5.457,0,0,1-2.768,3.8,5.7,5.7,0,0,1,.716,1.271c.095.219.175.446.248.672a1.486,1.486,0,0,1,.073.467,1.525,1.525,0,0,1-.92,1.395,1.547,1.547,0,0,1-1.789-.46,4,4,0,0,0-1.811-1.2,5.5,5.5,0,0,1-2.564-1.432,2.53,2.53,0,0,1-.57-1.424h-.044a6.189,6.189,0,0,1-2.293-.438,3.255,3.255,0,0,1-.424.416,3.774,3.774,0,0,1-2.491.928,3.84,3.84,0,0,1-3.623-2.549.1.1,0,0,1-.015-.044,5.441,5.441,0,0,1-1.424.307c-.124.007-.248.015-.38.015a5.218,5.218,0,0,1-4.178-8.341,2.133,2.133,0,0,1-.131-.745,2.264,2.264,0,0,1,1.811-2.228.026.026,0,0,1,.015-.007c-.007-.088-.015-.175-.015-.27a2.875,2.875,0,0,1,.248-1.176,2.943,2.943,0,0,1,2.7-1.775,2.882,2.882,0,0,1,1.278.292A4.314,4.314,0,0,1,21.656,9a4.236,4.236,0,0,1,2.834,1.074,2.264,2.264,0,0,1,4.017.329,5.922,5.922,0,0,1,.628-.037,5.447,5.447,0,0,1,5.419,5h.022a2.264,2.264,0,0,1,2.264,2.271,2.344,2.344,0,0,1-.292,1.125,3.871,3.871,0,0,1,.745,2.286Z" transform="translate(-3.275 -2.427)" fill="#fb7b76"/>
        <path id="Shape-6" data-name="Shape" d="M28.73,2.191a.73.73,0,0,1-.73-.73V.73a.73.73,0,0,1,1.461,0v.73A.73.73,0,0,1,28.73,2.191Z" transform="translate(-7.859)" fill="#f0c419"/>
        <path id="Shape-7" data-name="Shape" d="M44.847,9.071a.73.73,0,0,1-.516-1.247l.73-.73a.73.73,0,1,1,1.033,1.033l-.73.73a.73.73,0,0,1-.516.214Z" transform="translate(-12.205 -1.853)" fill="#f0c419"/>
        <path id="Shape-8" data-name="Shape" d="M12.34,9.071a.73.73,0,0,1-.516-.214l-.73-.73a.73.73,0,1,1,1.033-1.033l.73.73a.73.73,0,0,1-.516,1.247Z" transform="translate(-3.24 -1.853)" fill="#f0c419"/>
        <path id="Shape-9" data-name="Shape" d="M20,4.383a.73.73,0,0,1-.675-.451l-.838-2.025a.73.73,0,1,1,1.349-.559l.839,2.025a.73.73,0,0,1-.4.955.741.741,0,0,1-.28.055Z" transform="translate(-5.277 -0.238)" fill="#f0c419"/>
        <path id="Shape-10" data-name="Shape" d="M37.149,4.383a.741.741,0,0,1-.28-.056.73.73,0,0,1-.4-.955l.839-2.025a.73.73,0,1,1,1.349.559l-.838,2.025a.73.73,0,0,1-.675.451Z" transform="translate(-10.129 -0.238)" fill="#f0c419"/>
        <path id="Shape-11" data-name="Shape" d="M49.055,16.733a.73.73,0,0,1-.28-1.406l2.025-.838a.73.73,0,1,1,.559,1.35l-2.024.838a.73.73,0,0,1-.28.056Z" transform="translate(-13.339 -3.892)" fill="#f0c419"/>
        <path id="Shape-12" data-name="Shape" d="M7.658,16.733a.73.73,0,0,1-.28-.056l-2.024-.838a.73.73,0,0,1,.559-1.35l2.025.838a.73.73,0,0,1-.28,1.406Z" transform="translate(-1.631 -3.892)" fill="#f0c419"/>
        <g id="Group_3023" data-name="Group 3023" transform="translate(7.901 5.848)">
          <path id="Shape-13" data-name="Shape" d="M42.687,27.91c-.022.029-.051.058-.073.088a5.357,5.357,0,0,1-.789,1.972,4.231,4.231,0,0,1-1.176.161,4.6,4.6,0,0,1-2.082-.5,4.785,4.785,0,0,1-.855-.584,2.6,2.6,0,0,1-.913.175,2.531,2.531,0,0,1-2.279-1.4.732.732,0,0,1,1.307-.657,1.1,1.1,0,0,0,1.585.4,1.071,1.071,0,0,0,.467-.884,1.116,1.116,0,0,0-.11-.489.73.73,0,0,1,1.3-.657,2.572,2.572,0,0,1,.27,1.147,2.525,2.525,0,0,1-.46,1.424c.117.08.234.161.351.226a3.106,3.106,0,0,0,3.455-.416Z" transform="translate(-17.497 -12.637)" fill="#ff5364"/>
          <path id="Shape-14" data-name="Shape" d="M31.3,23.643a4.361,4.361,0,0,0,1.811-2.78.73.73,0,1,0-1.434-.275,2.911,2.911,0,0,1-1.209,1.854A2.981,2.981,0,0,1,26.625,22a.731.731,0,1,0-1.081.985,4.4,4.4,0,0,0,2.341,1.35,2.176,2.176,0,0,1-1.778.914.73.73,0,1,0,0,1.461,3.622,3.622,0,0,0,3.4-2.342,4.4,4.4,0,0,0,1.793-.73Z" transform="translate(-15.046 -11.236)" fill="#ff5364"/>
          <path id="Shape-15" data-name="Shape" d="M41.874,35.511a5.716,5.716,0,0,1-1.709.555.628.628,0,0,1-.117.007.73.73,0,0,1-.11-1.453,4.228,4.228,0,0,0,1.22-.38,5.7,5.7,0,0,1,.716,1.271Z" transform="translate(-18.81 -15.081)" fill="#ff5364"/>
          <path id="Shape-16" data-name="Shape" d="M19.143,28.032a3.709,3.709,0,0,0-.058.621,2.938,2.938,0,0,0,.11.811,5.441,5.441,0,0,1-1.424.307,4.5,4.5,0,0,1-.146-1.1,2.539,2.539,0,0,1-2.264-2.52.741.741,0,0,1,.73-.745.726.726,0,0,1,.73.723v.022a1.1,1.1,0,0,0,1.044,1.074,4.352,4.352,0,0,1,.416-.942.72.72,0,0,1,1-.248.741.741,0,0,1,.248,1.008,3.055,3.055,0,0,0-.387.986Z" transform="translate(-12.352 -12.7)" fill="#ff5364"/>
          <path id="Shape-17" data-name="Shape" d="M34.7,34.32a6.153,6.153,0,0,1-1.351.27,2.53,2.53,0,0,1-.57-1.424,1.984,1.984,0,0,0,.212-.007,5.542,5.542,0,0,0,1.278-.234A.73.73,0,1,1,34.7,34.32Z" transform="translate(-17.049 -14.716)" fill="#ff5364"/>
          <path id="Shape-18" data-name="Shape" d="M25.29,16.73a.73.73,0,0,0-.73-.73,3.363,3.363,0,0,0-3.36,3.36.73.73,0,1,0,1.461,0,1.9,1.9,0,0,1,1.9-1.9.73.73,0,0,0,.73-.73Z" transform="translate(-13.926 -10.163)" fill="#ff5364"/>
          <path id="Shape-19" data-name="Shape" d="M13.072,20.525a.722.722,0,0,1-.376-.105,3,3,0,0,1-1.288-1.591,2.956,2.956,0,0,1-.167-.984,3,3,0,0,1,2.994-3,2.965,2.965,0,0,1,2.4,1.212.731.731,0,0,1-1.173.871,1.515,1.515,0,0,0-1.226-.619,1.543,1.543,0,0,0-.789,2.864.73.73,0,0,1-.378,1.356Z" transform="translate(-11.241 -9.85)" fill="#ff5364"/>
          <path id="Shape-20" data-name="Shape" d="M33.264,11.735a.73.73,0,0,1-.73-.73,1.536,1.536,0,0,0-3.073,0A.73.73,0,1,1,28,11a3,3,0,1,1,5.994,0,.73.73,0,0,1-.73.73Z" transform="translate(-15.76 -8.007)" fill="#ff5364"/>
          <path id="Shape-21" data-name="Shape" d="M43.462,22.5a.73.73,0,0,1-.311-1.388,1.558,1.558,0,0,0,.692-.64,1.534,1.534,0,0,0-2.258-1.992.73.73,0,1,1-.876-1.169,2.969,2.969,0,0,1,1.775-.6,3,3,0,0,1,1.292,5.722.721.721,0,0,1-.313.067Z" transform="translate(-19.108 -10.355)" fill="#ff5364"/>
        </g>
      </g>
    </g>
    <g id="protest" transform="translate(3654.231 1210.684)">
      <g id="Group_3028" data-name="Group 3028" transform="translate(29.334 4.51)">
        <path id="Path_2674" data-name="Path 2674" d="M289.478,60.784a1.917,1.917,0,0,0-1.917,1.917v-4.5a1.917,1.917,0,0,0-3.833,0V56.423a1.917,1.917,0,1,0-3.833,0v2.2a1.917,1.917,0,0,0-3.833,0v7.609a1.947,1.947,0,0,0-3.895,0v7.7a3.928,3.928,0,0,0,.8,2.381l2.286,3a3.927,3.927,0,0,1,.8,2.381V83.3l.647,2.105-.647,2.429v4.524h12.89V87.831l-.62-2.267.62-2.267V81.463a3.928,3.928,0,0,1,.546-2l1.352-2.289a3.927,3.927,0,0,0,.546-2V62.7A1.917,1.917,0,0,0,289.478,60.784Z" transform="translate(-272.167 -54.506)" fill="#ffcebf"/>
        <g id="Group_3027" data-name="Group 3027" transform="translate(1.089)">
          <path id="Path_2675" data-name="Path 2675" d="M457.515,132.3v12.478a3.928,3.928,0,0,1-.546,2l-1.352,2.289a3.931,3.931,0,0,0-.545,2v10.892l-1.8,0V151.066a3.931,3.931,0,0,1,.545-2l1.352-2.289a3.927,3.927,0,0,0,.546-2V132.3a1.916,1.916,0,0,0-1.016-1.692,1.917,1.917,0,0,1,2.817,1.692Z" transform="translate(-439.376 -124.109)" fill="#ffb09e"/>
          <path id="Path_2676" data-name="Path 2676" d="M288.138,178.576v-3.811a1.948,1.948,0,0,0-2.805-1.748,1.913,1.913,0,0,1,.52.372,1.939,1.939,0,0,1,.571,1.377v3.184a1.546,1.546,0,0,0,.931,1.421,4.186,4.186,0,0,1,2.569,3.218.732.732,0,1,0,1.436-.286A4.825,4.825,0,0,0,288.138,178.576Z" transform="translate(-285.333 -163.029)" fill="#ffb09e"/>
          <path id="Path_2677" data-name="Path 2677" d="M334.9,83.123v8.523a.85.85,0,0,1-1.7,0V83.123a1.914,1.914,0,0,0-1.066-1.713,1.917,1.917,0,0,1,2.767,1.713Z" transform="translate(-328.257 -79.002)" fill="#ffb09e"/>
          <path id="Path_2678" data-name="Path 2678" d="M381.247,56.418V67.151a.85.85,0,1,1-1.7,0V56.418A1.914,1.914,0,0,0,378.48,54.7a1.917,1.917,0,0,1,2.767,1.713Z" transform="translate(-370.773 -54.506)" fill="#ffb09e"/>
          <path id="Path_2679" data-name="Path 2679" d="M426.769,87.764a.85.85,0,0,1-.85-.85l-.009-8.947a1.923,1.923,0,0,0-.329-1.088,1.9,1.9,0,0,0-.677-.6l-.056-.029a1.908,1.908,0,0,1,.846-.2,1.93,1.93,0,0,1,.911.225,1.9,1.9,0,0,1,.677.6,1.922,1.922,0,0,1,.329,1.088l.008,8.945A.85.85,0,0,1,426.769,87.764Z" transform="translate(-413.305 -74.268)" fill="#ffb09e"/>
        </g>
        <path id="Path_2680" data-name="Path 2680" d="M319.24,402.5h12.89v4.534H319.24Z" transform="translate(-315.345 -373.707)" fill="#fd8087"/>
        <path id="Path_2681" data-name="Path 2681" d="M453.271,402.5h1.8v4.534h-1.8Z" transform="translate(-438.287 -373.707)" fill="#fe646f"/>
      </g>
      <g id="Group_3030" data-name="Group 3030" transform="translate(7.431 0)">
        <path id="Path_2682" data-name="Path 2682" d="M24.742,6.278a1.917,1.917,0,0,0-1.917,1.917V3.7a1.917,1.917,0,0,0-3.833,0V1.917a1.917,1.917,0,0,0-3.833,0v2.2a1.917,1.917,0,0,0-3.833,0v7.609a1.947,1.947,0,1,0-3.895,0v7.7a3.928,3.928,0,0,0,.8,2.381l2.286,3a3.927,3.927,0,0,1,.8,2.381v3.264l.461,2.468L11.326,35v7.364h12.89V35l-.59-2.012.59-2.522V26.957a3.928,3.928,0,0,1,.546-2l1.352-2.289a3.927,3.927,0,0,0,.546-2V8.195a1.916,1.916,0,0,0-1.917-1.917Z" transform="translate(-7.431 0)" fill="#d78878"/>
        <g id="Group_3029" data-name="Group 3029" transform="translate(1.089 0)">
          <path id="Path_2683" data-name="Path 2683" d="M192.78,77.8V90.276a3.928,3.928,0,0,1-.546,2l-1.352,2.289a3.931,3.931,0,0,0-.545,2v3.506l-.7,2.267.7,2.267v7.364l-1.8,0V96.56a3.93,3.93,0,0,1,.545-2l1.352-2.289a3.927,3.927,0,0,0,.546-2V77.8a1.916,1.916,0,0,0-1.016-1.692A1.917,1.917,0,0,1,192.78,77.8Z" transform="translate(-174.641 -69.603)" fill="#ca6e59"/>
          <path id="Path_2684" data-name="Path 2684" d="M23.4,124.071V120.26a1.948,1.948,0,0,0-2.805-1.748,1.914,1.914,0,0,1,.52.372,1.939,1.939,0,0,1,.571,1.377v3.184a1.546,1.546,0,0,0,.931,1.421,4.187,4.187,0,0,1,2.569,3.218.732.732,0,1,0,1.436-.286A4.825,4.825,0,0,0,23.4,124.071Z" transform="translate(-20.598 -108.524)" fill="#ca6e59"/>
          <path id="Path_2685" data-name="Path 2685" d="M70.161,28.617v8.523a.85.85,0,0,1-1.7,0V28.617A1.915,1.915,0,0,0,67.394,26.9a1.917,1.917,0,0,1,2.767,1.713Z" transform="translate(-63.522 -24.496)" fill="#ca6e59"/>
          <path id="Path_2686" data-name="Path 2686" d="M116.512,1.912V12.645a.85.85,0,1,1-1.7,0V1.912A1.915,1.915,0,0,0,113.745.2a1.917,1.917,0,0,1,2.767,1.713Z" transform="translate(-106.038 0)" fill="#ca6e59"/>
          <path id="Path_2687" data-name="Path 2687" d="M162.034,33.258a.85.85,0,0,1-.85-.85l-.009-8.947a1.922,1.922,0,0,0-.329-1.088,1.9,1.9,0,0,0-.677-.6l-.056-.029a1.908,1.908,0,0,1,.846-.2,1.93,1.93,0,0,1,.911.225,1.9,1.9,0,0,1,.677.6,1.922,1.922,0,0,1,.329,1.088l.009,8.945A.85.85,0,0,1,162.034,33.258Z" transform="translate(-148.57 -19.762)" fill="#ca6e59"/>
        </g>
        <path id="Path_2688" data-name="Path 2688" d="M54.5,368.2H67.4v4.534H54.5Z" transform="translate(-50.61 -337.732)" fill="#fd8087"/>
        <path id="Path_2689" data-name="Path 2689" d="M188.536,368.2h1.8v4.534h-1.8Z" transform="translate(-173.552 -337.732)" fill="#fe646f"/>
      </g>
    </g>
    <g id="like" transform="translate(3743 1198.333)">
      <g id="Group_7" data-name="Group 7" transform="translate(0 10.667)">
        <g id="Group_6" data-name="Group 6" transform="translate(0 0)">
          <path id="Path_4" data-name="Path 4" d="M45.961,37a4.255,4.255,0,0,0-1.247-3.014,4.755,4.755,0,0,0,1.226-3.656,4.95,4.95,0,0,0-4.994-4.341H29.116a27.534,27.534,0,0,0,1.524-7.66c0-4.154-3.529-7.66-5.745-7.66a6.014,6.014,0,0,0-3.47,1.166.958.958,0,0,0-.36.749v6.494L15.548,31.024l-.228.117v-.366a.958.958,0,0,0-.958-.958H4.788A4.792,4.792,0,0,0,0,34.6v15.32a4.792,4.792,0,0,0,4.788,4.788h5.745a4.8,4.8,0,0,0,4.506-3.166A12.484,12.484,0,0,0,20.108,52.8H37.686a4.405,4.405,0,0,0,4.339-3.344,4.323,4.323,0,0,0-.345-2.878A4.293,4.293,0,0,0,43.6,40.83,4.291,4.291,0,0,0,45.961,37Zm-4.039,2.363a.957.957,0,0,0-.548,1.649,2.373,2.373,0,0,1-1.365,4.1.957.957,0,0,0-.548,1.649,2.368,2.368,0,0,1,.693,2.285,2.478,2.478,0,0,1-2.468,1.842H20.108c-1.555,0-4.163-.73-5.067-1.635a.959.959,0,0,0-1.635.678A2.876,2.876,0,0,1,10.533,52.8H4.788a2.876,2.876,0,0,1-2.873-2.873V34.6a2.876,2.876,0,0,1,2.873-2.873h8.618v.958a.962.962,0,0,0,.456.816.979.979,0,0,0,.931.04l1.915-.958a.956.956,0,0,0,.44-.454l5.745-12.448a.975.975,0,0,0,.088-.4V13.1a4.038,4.038,0,0,1,1.915-.519c1.049,0,3.83,2.608,3.83,5.745,0,3.37-1.835,8.229-1.852,8.277a.956.956,0,0,0,.894,1.3H40.945a3.023,3.023,0,0,1,3.087,2.6,2.861,2.861,0,0,1-1.363,2.71.959.959,0,0,0,.065,1.668,2.371,2.371,0,0,1-.812,4.479Z" transform="translate(0 -10.667)" fill="#382a2a"/>
        </g>
      </g>
      <g id="Group_9" data-name="Group 9" transform="translate(13.405 31.732)">
        <g id="Group_8" data-name="Group 8" transform="translate(0 0)">
          <path id="Path_5" data-name="Path 5" d="M150.291,245.333a.958.958,0,0,0-.958.958v17.235a.958.958,0,0,0,1.915,0V246.291A.958.958,0,0,0,150.291,245.333Z" transform="translate(-149.333 -245.333)" fill="#382a2a"/>
        </g>
      </g>
    </g>
    <g id="ok" transform="translate(2524.635 1210.215)">
      <path id="Path_2647" data-name="Path 2647" d="M108.086,31.29c5.672-21.164,5.312-19.638,5.312-20.243a3.241,3.241,0,0,0-6.071-1.576V3.645a3.645,3.645,0,0,0-7.29,0V14.508L93.958,4.455A3.645,3.645,0,1,0,87.645,8.1l5.343,8.91H85.862a3.646,3.646,0,0,0-3.645,3.645c0,.445.055.4,0,.4A1.625,1.625,0,0,0,80.6,22.68V37.26A11.34,11.34,0,0,0,91.937,48.6h4.051a9.754,9.754,0,0,0,6.662-2.864,18.684,18.684,0,0,0,5.437-14.446Zm-11.22,2.6a3.336,3.336,0,0,1-5.391,1.56,10.509,10.509,0,0,1-3.588-7.907,6.529,6.529,0,0,0-.546-3.24h7l.9.817A5.425,5.425,0,0,1,97,29.124c0,4.138.046,4.149-.136,4.764Z" transform="translate(0 0)" fill="#d89d6a"/>
      <g id="Group_3024" data-name="Group 3024" transform="translate(82.211 0)">
        <path id="Path_2648" data-name="Path 2648" d="M286.287,3.645V24.513A148.607,148.607,0,0,0,279,11.478V3.645a3.645,3.645,0,0,1,7.29,0Z" transform="translate(-261.171 0)" fill="#e7b589"/>
        <path id="Path_2649" data-name="Path 2649" d="M164.088,45.159l-2.182-2.182a11.211,11.211,0,0,0-7.982-3.307h-1.533l-4.4-7.342a3.645,3.645,0,1,1,6.313-3.645c7.3,12.074,5.12,8.392,9.787,16.476Z" transform="translate(-142.555 -24.228)" fill="#e7b589"/>
        <path id="Path_2650" data-name="Path 2650" d="M122.958,188.018a20.806,20.806,0,0,0-.91-4.97l-6.733-6.733a9.72,9.72,0,0,0-6.874-2.847c-8.413,0-8.332-.13-9.357.389a3.65,3.65,0,0,0-1.819,2.1,7.233,7.233,0,0,1,6.631,4.8h5.3a7.3,7.3,0,0,1,2.2,2.634c.6,1.361.462,2.127.463,6a3.336,3.336,0,0,1-5.528,2.509,10.508,10.508,0,0,1-3.3-5.469c-.657-2.755.237-3.942-1.1-6.182a5.668,5.668,0,0,0-4.351-2.714c-.039,0,.138.007-.478-.023-.041,0-.026-1.116-.026,14.584a11.34,11.34,0,0,0,11.34,11.34h4.051a9.78,9.78,0,0,0,5.945-2.214l0,0A18.7,18.7,0,0,0,122.958,188.018Z" transform="translate(-97.071 -156.458)" fill="#e7b589"/>
        <path id="Path_2651" data-name="Path 2651" d="M373.9,82.912c0,.6.3-.679-4.5,17.226V79.929A3.243,3.243,0,0,1,373.9,82.912Z" transform="translate(-342.714 -71.865)" fill="#e7b589"/>
      </g>
    </g>
    <g id="Group_3046" data-name="Group 3046" transform="translate(2391.941 1143.47)">
      <g id="Group_3008" data-name="Group 3008" transform="translate(31.46 68.595)">
        <path id="Path_2572" data-name="Path 2572" d="M136.79,176.922a3.52,3.52,0,0,1-1.789.489h-13.62a2.31,2.31,0,0,1-2.327-2.32,2.277,2.277,0,0,1,1.18-1.955.159.159,0,0,0,.084-.139v0a.156.156,0,0,0-.121-.152,2.279,2.279,0,0,1-1.044-3.909,2.451,2.451,0,0,1-.544-4.282,2.639,2.639,0,0,1,1.178-5h5.443a.529.529,0,0,0,.481-.749l-.646-1.414a6.294,6.294,0,0,1-.569-2.615v-2.941a3.251,3.251,0,0,1,.244-1.236,2.708,2.708,0,0,1,2.5-1.678h.006a1.864,1.864,0,0,1,1.715,1.133l1.136,2.666,4.279,2.491.7.3a4.285,4.285,0,0,1,2.195,2.105l5.054,10.415v5.713Z" transform="translate(-117.147 -149.014)" fill="#e7b589"/>
        <g id="Group_3006" data-name="Group 3006" transform="translate(1.906 18.676)">
          <path id="Path_2573" data-name="Path 2573" d="M119.263,377.219h13.62a3.52,3.52,0,0,0,1.789-.489l5.541-3.085v-2.889l.21.433V376.9l-5.541,3.085a3.52,3.52,0,0,1-1.789.489h-13.62a2.31,2.31,0,0,1-2.327-2.32,2.267,2.267,0,0,1,.6-1.5A2.348,2.348,0,0,0,119.263,377.219Z" transform="translate(-117.146 -370.757)" fill="#d89d6a"/>
        </g>
        <path id="Path_2574" data-name="Path 2574" d="M38.993,266.9H30.468a1.888,1.888,0,0,1-1.888-1.888v-17.34a1.888,1.888,0,0,1,1.888-1.888h8.525a1.145,1.145,0,0,1,1.145,1.145v18.826A1.145,1.145,0,0,1,38.993,266.9Z" transform="translate(-7.495 -237.636)" fill="#4bb843"/>
        <path id="Path_2575" data-name="Path 2575" d="M30.468,245.786h.371v14.14a2.947,2.947,0,0,0,2.947,2.947h6.352v2.885a1.145,1.145,0,0,1-1.145,1.145H30.468a1.888,1.888,0,0,1-1.888-1.888v-17.34a1.888,1.888,0,0,1,1.888-1.888Z" transform="translate(-7.495 -237.635)" fill="#3aa533"/>
      </g>
      <g id="Group_3009" data-name="Group 3009" transform="translate(44.726 80.489)">
        <path id="Path_2572-2" data-name="Path 2572" d="M123.726,182.147a4.179,4.179,0,0,0,2.124.58h16.17a2.743,2.743,0,0,0,2.763-2.754,2.7,2.7,0,0,0-1.4-2.321.189.189,0,0,1-.1-.165v-.005a.185.185,0,0,1,.144-.181,2.705,2.705,0,0,0,1.24-4.641,2.91,2.91,0,0,0,.646-5.083,3.134,3.134,0,0,0-1.4-5.938H137.45a.628.628,0,0,1-.572-.889l.767-1.679a7.471,7.471,0,0,0,.675-3.1v-3.492a3.86,3.86,0,0,0-.29-1.468,3.215,3.215,0,0,0-2.973-1.992h-.007a2.213,2.213,0,0,0-2.036,1.345l-1.349,3.165-5.08,2.958-.833.354a5.088,5.088,0,0,0-2.606,2.5l-6,12.365v6.783Z" transform="translate(-108.291 -149.014)" fill="#e7b589"/>
        <g id="Group_3006-2" data-name="Group 3006" transform="translate(8.856 22.173)">
          <path id="Path_2573-2" data-name="Path 2573" d="M142.268,378.429H126.1a4.178,4.178,0,0,1-2.124-.58l-6.579-3.663v-3.429l-.25.514v6.783l6.579,3.663a4.179,4.179,0,0,0,2.124.58h16.17a2.743,2.743,0,0,0,2.763-2.754,2.692,2.692,0,0,0-.709-1.776A2.788,2.788,0,0,1,142.268,378.429Z" transform="translate(-117.146 -370.757)" fill="#d89d6a"/>
        </g>
        <path id="Path_2574-2" data-name="Path 2574" d="M29.94,270.857H40.061a2.242,2.242,0,0,0,2.242-2.242V248.028a2.242,2.242,0,0,0-2.242-2.242H29.94a1.36,1.36,0,0,0-1.36,1.36V269.5A1.36,1.36,0,0,0,29.94,270.857Z" transform="translate(-28.58 -236.109)" fill="#f37c7c"/>
        <path id="Path_2575-2" data-name="Path 2575" d="M40.061,245.786H39.62v16.787a3.5,3.5,0,0,1-3.5,3.5H28.58V269.5a1.36,1.36,0,0,0,1.36,1.36H40.061a2.242,2.242,0,0,0,2.242-2.242V248.028A2.242,2.242,0,0,0,40.061,245.786Z" transform="translate(-28.58 -236.109)" fill="#ee6161"/>
      </g>
      <path id="Path_2576" data-name="Path 2576" d="M244.45,10.842l-2.341-1.217a.772.772,0,0,0-.718,0l-2.33,1.239a.772.772,0,0,1-1.124-.809l.434-2.6a.772.772,0,0,0-.225-.682l-1.9-1.833a.772.772,0,0,1,.422-1.319l2.609-.392a.772.772,0,0,0,.579-.425L241.014.433A.772.772,0,0,1,242.4.427l1.179,2.361a.772.772,0,0,0,.583.42l2.613.367a.772.772,0,0,1,.434,1.315L245.327,6.74a.772.772,0,0,0-.219.684l.458,2.6A.772.772,0,0,1,244.45,10.842Z" transform="translate(-163.958 66.422)" fill="#fec15a"/>
      <path id="Path_2578" data-name="Path 2578" d="M379.08,71.082l1.869-.971a.616.616,0,0,1,.573,0l1.86.989a.616.616,0,0,0,.9-.645l-.346-2.078a.616.616,0,0,1,.18-.545l1.515-1.463a.616.616,0,0,0-.337-1.053l-2.083-.313a.616.616,0,0,1-.462-.339l-.923-1.893a.616.616,0,0,0-1.105-.005l-.941,1.884a.616.616,0,0,1-.466.335l-2.086.293a.616.616,0,0,0-.346,1.05l1.5,1.477a.616.616,0,0,1,.175.546l-.366,2.074A.616.616,0,0,0,379.08,71.082Z" transform="translate(-348.347 39.882)" fill="#fec15a"/>
    </g>
  </g>
</svg>
