<svg xmlns="http://www.w3.org/2000/svg" width="18.445" height="23.986" viewBox="0 0 18.445 23.986">
  <g id="_6_Stars" data-name="6 Stars" transform="translate(0)">
    <g id="Group_6975" data-name="Group 6975" transform="translate(0 0)">
      <g id="star_2_" data-name="star (2)" transform="translate(5.729 8.234)">
        <path id="Path_5617" data-name="Path 5617" d="M7.587,14.554,5.07,14.32,4.07,12A.2.2,0,0,0,3.7,12l-1,2.322-2.517.233a.2.2,0,0,0-.115.352l1.9,1.668-.556,2.466a.2.2,0,0,0,.3.218l2.174-1.291,2.174,1.291a.2.2,0,0,0,.3-.218L5.8,16.575l1.9-1.668A.2.2,0,0,0,7.587,14.554Z" transform="translate(0 -11.877)" fill="#ffdc64"/>
        <path id="Path_5618" data-name="Path 5618" d="M4.07,12A.2.2,0,0,0,3.7,12l-1,2.322-2.517.233a.2.2,0,0,0-.115.352l1.9,1.668-.556,2.466a.2.2,0,0,0,.3.218L2.2,18.97a8.9,8.9,0,0,1,2.368-5.824Z" transform="translate(0 -11.877)" fill="#ffc850"/>
      </g>
      <g id="star_2_2" data-name="star (2)" transform="translate(0 0.823)">
        <path id="Path_5617-2" data-name="Path 5617" d="M7.587,14.554,5.07,14.32,4.07,12A.2.2,0,0,0,3.7,12l-1,2.322-2.517.233a.2.2,0,0,0-.115.352l1.9,1.668-.556,2.466a.2.2,0,0,0,.3.218l2.174-1.291,2.174,1.291a.2.2,0,0,0,.3-.218L5.8,16.575l1.9-1.668A.2.2,0,0,0,7.587,14.554Z" transform="translate(0 -11.877)" fill="#ffdc64"/>
        <path id="Path_5618-2" data-name="Path 5618" d="M4.07,12A.2.2,0,0,0,3.7,12l-1,2.322-2.517.233a.2.2,0,0,0-.115.352l1.9,1.668-.556,2.466a.2.2,0,0,0,.3.218L2.2,18.97a8.9,8.9,0,0,1,2.368-5.824Z" transform="translate(0 -11.877)" fill="#ffc850"/>
      </g>
      <g id="star_2_3" data-name="star (2)" transform="translate(12.629 4.528)">
        <path id="Path_5617-3" data-name="Path 5617" d="M5.678,13.88l-1.884-.175-.748-1.737a.151.151,0,0,0-.277,0l-.748,1.737L.137,13.88a.151.151,0,0,0-.086.264l1.421,1.249-.416,1.845a.151.151,0,0,0,.224.163l1.627-.966,1.627.966a.151.151,0,0,0,.224-.163l-.416-1.845,1.421-1.249A.151.151,0,0,0,5.678,13.88Z" transform="translate(0 -11.877)" fill="#ffdc64"/>
        <path id="Path_5618-3" data-name="Path 5618" d="M3.046,11.968a.151.151,0,0,0-.277,0l-.748,1.737L.137,13.88a.151.151,0,0,0-.086.264l1.421,1.249-.416,1.845a.151.151,0,0,0,.224.163l.363-.216a6.657,6.657,0,0,1,1.772-4.358Z" transform="translate(0 -11.877)" fill="#ffc850"/>
      </g>
      <g id="star_2_4" data-name="star (2)" transform="translate(0.711 12.791)">
        <path id="Path_5617-4" data-name="Path 5617" d="M4.9,13.605l-1.625-.151-.646-1.5a.13.13,0,0,0-.239,0l-.646,1.5-1.625.151a.13.13,0,0,0-.074.228L1.27,14.91.912,16.5a.13.13,0,0,0,.194.141l1.4-.833,1.4.833a.13.13,0,0,0,.194-.141L3.747,14.91l1.226-1.077A.13.13,0,0,0,4.9,13.605Z" transform="translate(0 -11.877)" fill="#ffdc64"/>
        <path id="Path_5618-4" data-name="Path 5618" d="M2.628,11.955a.13.13,0,0,0-.239,0l-.646,1.5-1.625.151a.13.13,0,0,0-.074.228L1.27,14.91.912,16.5a.13.13,0,0,0,.194.141l.313-.186A5.744,5.744,0,0,1,2.947,12.7Z" transform="translate(0 -11.877)" fill="#ffc850"/>
      </g>
      <g id="star_2_5" data-name="star (2)" transform="translate(12.699 15.184)">
        <path id="Path_5617-5" data-name="Path 5617" d="M4,13.287l-1.326-.123-.527-1.223a.106.106,0,0,0-.2,0l-.527,1.223L.1,13.287a.106.106,0,0,0-.06.186l1,.879-.293,1.3a.106.106,0,0,0,.158.115l1.145-.68,1.145.68a.106.106,0,0,0,.158-.115l-.293-1.3,1-.879A.106.106,0,0,0,4,13.287Z" transform="translate(0 -11.877)" fill="#ffdc64"/>
        <path id="Path_5618-5" data-name="Path 5618" d="M2.144,11.941a.106.106,0,0,0-.2,0l-.527,1.223L.1,13.287a.106.106,0,0,0-.06.186l1,.879-.293,1.3a.106.106,0,0,0,.158.115l.256-.152A4.686,4.686,0,0,1,2.4,12.546Z" transform="translate(0 -11.877)" fill="#ffc850"/>
      </g>
      <g id="star_2_6" data-name="star (2)" transform="translate(8.947)">
        <path id="Path_5617-6" data-name="Path 5617" d="M3.6,13.145,2.4,13.035l-.474-1.1a.1.1,0,0,0-.176,0l-.474,1.1-1.193.111a.1.1,0,0,0-.054.167l.9.791L.669,15.272a.1.1,0,0,0,.142.1l1.03-.612,1.03.612a.1.1,0,0,0,.142-.1L2.75,14.1l.9-.791A.1.1,0,0,0,3.6,13.145Z" transform="translate(0 -11.877)" fill="#ffdc64"/>
        <path id="Path_5618-6" data-name="Path 5618" d="M1.929,11.935a.1.1,0,0,0-.176,0l-.474,1.1-1.193.111a.1.1,0,0,0-.054.167l.9.791L.669,15.272a.1.1,0,0,0,.142.1l.23-.137a4.216,4.216,0,0,1,1.122-2.76Z" transform="translate(0 -11.877)" fill="#ffc850"/>
      </g>
    </g>
    <g id="S_2_" transform="translate(4.023 20.654)">
      <path id="Path_5673" data-name="Path 5673" d="M47.855,2.294c0,.413-.275,1.052-1.366,1.037A1.227,1.227,0,0,1,45.111,2.1l.8-.076a.577.577,0,0,0,.576.585h.025c.191,0,.515-.066.515-.318a.175.175,0,0,0,0-.035c-.031-.16-.285-.209-.537-.269l-.016,0c-.523-.127-1.238-.3-1.238-1.042,0-.433.324-.945,1.236-.945h.018c1.093.008,1.251.672,1.275.969,0,.021,0,.043,0,.061,0,.049,0,.078,0,.082l-.812.035a.334.334,0,0,1-.018-.053C46.9.94,46.915.713,46.489.707a.1.1,0,0,0-.023,0c-.15,0-.433.043-.433.2,0,.129.2.193.457.258l.135.031C47.284,1.347,47.855,1.537,47.855,2.294Z" transform="translate(-45.111 0)" fill="#ffbe40"/>
      <g id="Group_6984" data-name="Group 6984" transform="translate(1.378 0)">
        <path id="Path_5674" data-name="Path 5674" d="M258.277,179.732c0,.413-.275,1.052-1.366,1.037v-.717h.025c.191,0,.515-.066.515-.318a.173.173,0,0,0,0-.035c-.031-.16-.285-.209-.537-.269v-.83l.135.031C257.705,178.785,258.277,178.975,258.277,179.732Z" transform="translate(-256.911 -177.438)" fill="#ff9f40"/>
        <path id="Path_5675" data-name="Path 5675" d="M258.192,1.111l-.812.035a.327.327,0,0,1-.018-.053c-.037-.154-.025-.381-.451-.386V0c1.093.008,1.251.672,1.275.969,0,.021,0,.043,0,.061C258.19,1.078,258.19,1.107,258.192,1.111Z" transform="translate(-256.911 0)" fill="#ff9f40"/>
      </g>
    </g>
    <g id="S_2_2" data-name="S_2_" transform="translate(15.701 20.654)">
      <path id="Path_5673-2" data-name="Path 5673" d="M47.855,2.294c0,.413-.275,1.052-1.366,1.037A1.227,1.227,0,0,1,45.111,2.1l.8-.076a.577.577,0,0,0,.576.585h.025c.191,0,.515-.066.515-.318a.175.175,0,0,0,0-.035c-.031-.16-.285-.209-.537-.269l-.016,0c-.523-.127-1.238-.3-1.238-1.042,0-.433.324-.945,1.236-.945h.018c1.093.008,1.251.672,1.275.969,0,.021,0,.043,0,.061,0,.049,0,.078,0,.082l-.812.035a.334.334,0,0,1-.018-.053C46.9.94,46.915.713,46.489.707a.1.1,0,0,0-.023,0c-.15,0-.433.043-.433.2,0,.129.2.193.457.258l.135.031C47.284,1.347,47.855,1.537,47.855,2.294Z" transform="translate(-45.111 0)" fill="#ffbe40"/>
      <g id="Group_6984-2" data-name="Group 6984" transform="translate(1.378 0)">
        <path id="Path_5674-2" data-name="Path 5674" d="M258.277,179.732c0,.413-.275,1.052-1.366,1.037v-.717h.025c.191,0,.515-.066.515-.318a.173.173,0,0,0,0-.035c-.031-.16-.285-.209-.537-.269v-.83l.135.031C257.705,178.785,258.277,178.975,258.277,179.732Z" transform="translate(-256.911 -177.438)" fill="#ff9f40"/>
        <path id="Path_5675-2" data-name="Path 5675" d="M258.192,1.111l-.812.035a.327.327,0,0,1-.018-.053c-.037-.154-.025-.381-.451-.386V0c1.093.008,1.251.672,1.275.969,0,.021,0,.043,0,.061C258.19,1.078,258.19,1.107,258.192,1.111Z" transform="translate(-256.911 0)" fill="#ff9f40"/>
      </g>
    </g>
    <g id="T_2_" transform="translate(6.767 20.654)">
      <path id="Path_5676" data-name="Path 5676" d="M47.787,3.331V.724h.945V0H46V.724h.947V3.331Z" transform="translate(-46 0)" fill="#c68cff"/>
      <path id="Path_5677" data-name="Path 5677" d="M256,3.331h.421V.724h.945V0H256Z" transform="translate(-254.634 0)" fill="#aa80ff"/>
    </g>
    <g id="_x36__2_" transform="translate(0 19.447)">
      <path id="Path_5678" data-name="Path 5678" d="M77.694,3.612a.4.4,0,0,1-.1-.013c-.2-.053-.388-.267-.388-.67,0-.339.144-.548.388-.574a.363.363,0,0,1,.056-.005c.293,0,.452.23.452.651C78.1,3.279,78.032,3.612,77.694,3.612Zm.234-2.1H77.92a1.242,1.242,0,0,0-.324.008,1.1,1.1,0,0,0-.431.151c.056-.4.17-.672.431-.72a.448.448,0,0,1,.088-.008c.144,0,.311.04.348.349l.019.13L79.133,1.3l-.024-.14A1.314,1.314,0,0,0,77.734,0,1.171,1.171,0,0,0,77.6.008c-1.029.061-1.6.886-1.6,2.3s.564,2.2,1.6,2.229a1.6,1.6,0,0,0,.383-.026,1.463,1.463,0,0,0,1.213-1.517A1.428,1.428,0,0,0,77.928,1.508Z" transform="translate(-76 0)" fill="#a0e65c"/>
      <g id="Group_6985" data-name="Group 6985" transform="translate(1.596 0)">
        <path id="Path_5679" data-name="Path 5679" d="M257.537,1.3l-1.082.114-.019-.13c-.037-.31-.2-.349-.348-.349A.448.448,0,0,0,256,.947V.008A1.173,1.173,0,0,1,256.138,0a1.314,1.314,0,0,1,1.375,1.164Z" transform="translate(-256 0)" fill="#79cc52"/>
        <path id="Path_5680" data-name="Path 5680" d="M257.595,170.816a1.463,1.463,0,0,1-1.213,1.517,1.6,1.6,0,0,1-.383.026v-.937a.4.4,0,0,0,.1.013c.338,0,.41-.333.41-.611,0-.421-.16-.651-.452-.651a.366.366,0,0,0-.056.005v-.839a1.24,1.24,0,0,1,.324-.008h.008A1.428,1.428,0,0,1,257.595,170.816Z" transform="translate(-255.999 -167.823)" fill="#79cc52"/>
      </g>
    </g>
    <g id="A_2_" transform="translate(9.223 20.654)">
      <path id="Path_5669" data-name="Path 5669" d="M3.373,3.331C2.925,2.171,2.527,1.161,2.078,0H1.3C.863,1.161.478,2.171.042,3.331H.908l.249-.709H2.225l.263.709M1.413,1.9l.293-.77.253.77Z" transform="translate(-0.042 0)" fill="#ff7f40"/>
      <path id="Path_5670" data-name="Path 5670" d="M257.421,3.331c-.449-1.161-.846-2.171-1.3-3.331h-.372V1.131l.253.77h-.253v.721h.519l.263.709" transform="translate(-254.089 0)" fill="#f25a3c"/>
    </g>
    <g id="R_2_" transform="translate(12.831 20.654)">
      <path id="Path_5671" data-name="Path 5671" d="M37.034,1.293a1.758,1.758,0,0,1-.363.029c-.139,0-.28,0-.363,0v-.6h.363c.057,0,.261,0,.314.008a.256.256,0,0,1,.232.281A.262.262,0,0,1,37.034,1.293Zm.511.747v0a1.546,1.546,0,0,0-.164-.15.9.9,0,0,0,.664-.914.917.917,0,0,0-.55-.884A2.228,2.228,0,0,0,36.753,0H35.5V3.331h.808V2.016c.239,0,.227.038.312.131.013.014.03.035.051.063.136.18.457.689.627.952l.109.169h.962A12.656,12.656,0,0,0,37.546,2.04Z" transform="translate(-35.5 0)" fill="#a0e65c"/>
      <path id="Path_5672" data-name="Path 5672" d="M217.2,3.331h-.962l-.109-.169c-.169-.263-.491-.771-.627-.952V1.321a1.757,1.757,0,0,0,.363-.029.262.262,0,0,0,.183-.279.256.256,0,0,0-.232-.281c-.053-.007-.257-.008-.314-.008V0h.082a2.228,2.228,0,0,1,.742.09.917.917,0,0,1,.55.884.9.9,0,0,1-.664.913,1.551,1.551,0,0,1,.164.15v0A12.657,12.657,0,0,1,217.2,3.331Z" transform="translate(-214.329 0)" fill="#79cc52"/>
    </g>
  </g>
</svg>
